<mxfile host="Electron" agent="Mozilla/5.0 (Windows NT 10.0; Win64; x64) AppleWebKit/537.36 (KHTML, like Gecko) draw.io/26.0.16 Chrome/132.0.6834.196 Electron/34.2.0 Safari/537.36" version="26.0.16">
  <diagram name="Page-1" id="xVLohdDUBPAaQV3EGwE7">
    <mxGraphModel dx="3407" dy="2335" grid="0" gridSize="10" guides="1" tooltips="1" connect="1" arrows="1" fold="1" page="0" pageScale="1" pageWidth="850" pageHeight="1100" math="0" shadow="0">
      <root>
        <mxCell id="0" />
        <mxCell id="1" style="locked=1;" parent="0" />
        <mxCell id="ByxKJx8sGJnM6fiIf0L5-66" value="" style="rounded=0;whiteSpace=wrap;html=1;fillColor=light-dark(#fafafa, #1a1a1a);fontColor=#333333;strokeColor=#666666;" parent="1" vertex="1">
          <mxGeometry x="-500" y="1200" width="6980" height="190" as="geometry" />
        </mxCell>
        <mxCell id="ByxKJx8sGJnM6fiIf0L5-65" value="" style="rounded=0;whiteSpace=wrap;html=1;fillColor=light-dark(#fafafa, #1a1a1a);fontColor=#333333;strokeColor=#666666;" parent="1" vertex="1">
          <mxGeometry x="-500" y="980" width="6980" height="190" as="geometry" />
        </mxCell>
        <mxCell id="ByxKJx8sGJnM6fiIf0L5-64" value="" style="rounded=0;whiteSpace=wrap;html=1;fillColor=light-dark(#fafafa, #1a1a1a);fontColor=#333333;strokeColor=#666666;" parent="1" vertex="1">
          <mxGeometry x="-500" y="760" width="6980" height="190" as="geometry" />
        </mxCell>
        <mxCell id="ByxKJx8sGJnM6fiIf0L5-63" value="" style="rounded=0;whiteSpace=wrap;html=1;fillColor=light-dark(#fafafa, #1a1a1a);fontColor=#333333;strokeColor=#666666;" parent="1" vertex="1">
          <mxGeometry x="-500" y="530" width="6980" height="190" as="geometry" />
        </mxCell>
        <mxCell id="ByxKJx8sGJnM6fiIf0L5-60" value="" style="rounded=0;whiteSpace=wrap;html=1;fillColor=light-dark(#fafafa, #1a1a1a);fontColor=#333333;strokeColor=#666666;" parent="1" vertex="1">
          <mxGeometry x="-507" y="-412" width="6980" height="230" as="geometry" />
        </mxCell>
        <mxCell id="ByxKJx8sGJnM6fiIf0L5-59" value="" style="rounded=0;whiteSpace=wrap;html=1;fillColor=#FAFAFA;fontColor=#333333;strokeColor=#666666;" parent="1" vertex="1">
          <mxGeometry x="-500" y="-122" width="6980" height="252" as="geometry" />
        </mxCell>
        <mxCell id="ByxKJx8sGJnM6fiIf0L5-1" value="&lt;b&gt;Add Item&lt;/b&gt;&lt;div&gt;&lt;b&gt;&lt;br&gt;&lt;/b&gt;&lt;div&gt;&lt;span style=&quot;background-color: transparent; color: light-dark(rgb(255, 255, 255), rgb(18, 18, 18));&quot;&gt;CartId:Guid&lt;/span&gt;&lt;br&gt;&lt;/div&gt;&lt;div&gt;Description:string&lt;/div&gt;&lt;div&gt;Image:string&lt;/div&gt;&lt;div&gt;Price:decimal&lt;/div&gt;&lt;div&gt;TotalPrice:decimal&lt;/div&gt;&lt;div&gt;ItemId:Guid&lt;/div&gt;&lt;div&gt;ProductId:Guid&lt;/div&gt;&lt;/div&gt;" style="rounded=0;whiteSpace=wrap;html=1;fillColor=#1ba1e2;fontColor=#ffffff;strokeColor=#006EAF;" parent="1" vertex="1">
          <mxGeometry x="160" y="200" width="120" height="160" as="geometry" />
        </mxCell>
        <mxCell id="ByxKJx8sGJnM6fiIf0L5-2" value="&lt;b&gt;Item Added&lt;/b&gt;&lt;div&gt;&lt;b&gt;&lt;br&gt;&lt;/b&gt;&lt;/div&gt;&lt;div&gt;&lt;div&gt;&lt;font style=&quot;color: rgb(0, 0, 0);&quot;&gt;&lt;span style=&quot;background-color: transparent;&quot;&gt;CartId:Guid&lt;/span&gt;&lt;br&gt;&lt;/font&gt;&lt;/div&gt;&lt;div style=&quot;color: rgb(255, 255, 255);&quot;&gt;&lt;font style=&quot;color: rgb(0, 0, 0);&quot;&gt;Description:string&lt;/font&gt;&lt;/div&gt;&lt;div style=&quot;color: rgb(255, 255, 255);&quot;&gt;&lt;font style=&quot;color: rgb(0, 0, 0);&quot;&gt;Image:string&lt;/font&gt;&lt;/div&gt;&lt;div style=&quot;color: rgb(255, 255, 255);&quot;&gt;&lt;font style=&quot;color: rgb(0, 0, 0);&quot;&gt;Price:decimal&lt;/font&gt;&lt;/div&gt;&lt;div style=&quot;color: rgb(255, 255, 255);&quot;&gt;&lt;font style=&quot;color: rgb(0, 0, 0);&quot;&gt;TotalPrice:decimal&lt;/font&gt;&lt;/div&gt;&lt;div style=&quot;color: rgb(255, 255, 255);&quot;&gt;&lt;font style=&quot;color: rgb(0, 0, 0);&quot;&gt;ItemId:Guid&lt;/font&gt;&lt;/div&gt;&lt;div style=&quot;color: rgb(255, 255, 255);&quot;&gt;&lt;font style=&quot;color: rgb(0, 0, 0);&quot;&gt;ProductId:Guid&lt;/font&gt;&lt;/div&gt;&lt;/div&gt;" style="rounded=0;whiteSpace=wrap;html=1;fillColor=#f0a30a;strokeColor=#BD7000;fontColor=#000000;" parent="1" vertex="1">
          <mxGeometry x="320" y="560" width="120" height="140" as="geometry" />
        </mxCell>
        <mxCell id="ByxKJx8sGJnM6fiIf0L5-3" value="&lt;b&gt;Cart Created&lt;/b&gt;&lt;div&gt;&lt;br&gt;&lt;/div&gt;&lt;div&gt;CatId:Guid&lt;/div&gt;" style="rounded=0;whiteSpace=wrap;html=1;fillColor=#f0a30a;strokeColor=#BD7000;fontColor=#000000;" parent="1" vertex="1">
          <mxGeometry x="130" y="560" width="120" height="100" as="geometry" />
        </mxCell>
        <mxCell id="ByxKJx8sGJnM6fiIf0L5-4" value="" style="endArrow=classic;html=1;rounded=0;fontFamily=Helvetica;fontSize=12;fontColor=default;fontStyle=0;curved=1;edgeStyle=orthogonalEdgeStyle;exitX=0.5;exitY=1;exitDx=0;exitDy=0;entryX=0.5;entryY=0;entryDx=0;entryDy=0;" parent="1" source="ByxKJx8sGJnM6fiIf0L5-1" target="ByxKJx8sGJnM6fiIf0L5-3" edge="1">
          <mxGeometry width="50" height="50" relative="1" as="geometry">
            <mxPoint x="150" y="410" as="sourcePoint" />
            <mxPoint x="200" y="490" as="targetPoint" />
          </mxGeometry>
        </mxCell>
        <mxCell id="ByxKJx8sGJnM6fiIf0L5-5" value="" style="endArrow=classic;html=1;rounded=0;fontFamily=Helvetica;fontSize=12;fontColor=default;fontStyle=0;curved=1;edgeStyle=orthogonalEdgeStyle;exitX=0.5;exitY=1;exitDx=0;exitDy=0;entryX=0.5;entryY=0;entryDx=0;entryDy=0;" parent="1" source="ByxKJx8sGJnM6fiIf0L5-1" target="ByxKJx8sGJnM6fiIf0L5-2" edge="1">
          <mxGeometry width="50" height="50" relative="1" as="geometry">
            <mxPoint x="390" y="420" as="sourcePoint" />
            <mxPoint x="440" y="500" as="targetPoint" />
          </mxGeometry>
        </mxCell>
        <mxCell id="ByxKJx8sGJnM6fiIf0L5-6" value="&lt;b&gt;Cart Items&lt;/b&gt;&lt;div&gt;&lt;br&gt;&lt;/div&gt;&lt;div&gt;Description:string&lt;/div&gt;&lt;div&gt;Image:string&lt;/div&gt;&lt;div&gt;Price:decimal&lt;/div&gt;&lt;div&gt;TotalPrice:decimal&lt;/div&gt;" style="rounded=0;whiteSpace=wrap;html=1;fillColor=#cdeb8b;strokeColor=#36393d;" parent="1" vertex="1">
          <mxGeometry x="550" y="200" width="120" height="100" as="geometry" />
        </mxCell>
        <mxCell id="ByxKJx8sGJnM6fiIf0L5-8" value="" style="endArrow=classic;html=1;rounded=0;fontFamily=Helvetica;fontSize=12;fontColor=default;fontStyle=0;curved=1;edgeStyle=orthogonalEdgeStyle;exitX=0.5;exitY=0;exitDx=0;exitDy=0;entryX=0.5;entryY=1;entryDx=0;entryDy=0;" parent="1" source="ByxKJx8sGJnM6fiIf0L5-2" target="ByxKJx8sGJnM6fiIf0L5-6" edge="1">
          <mxGeometry width="50" height="50" relative="1" as="geometry">
            <mxPoint x="560" y="420" as="sourcePoint" />
            <mxPoint x="610" y="500" as="targetPoint" />
          </mxGeometry>
        </mxCell>
        <mxCell id="ByxKJx8sGJnM6fiIf0L5-9" value="&lt;b&gt;Remove Item&lt;/b&gt;&lt;div&gt;&lt;br&gt;&lt;/div&gt;&lt;div&gt;CartId:Guid&lt;/div&gt;&lt;div&gt;ItemId:Guid&lt;/div&gt;" style="rounded=0;whiteSpace=wrap;html=1;fillColor=#1ba1e2;fontColor=#ffffff;strokeColor=#006EAF;" parent="1" vertex="1">
          <mxGeometry x="895" y="193" width="120" height="100" as="geometry" />
        </mxCell>
        <mxCell id="ByxKJx8sGJnM6fiIf0L5-10" value="&lt;b&gt;Item Removed&lt;/b&gt;&lt;div&gt;&lt;br&gt;&lt;/div&gt;&lt;div&gt;CartId:Guid&lt;/div&gt;&lt;div&gt;ItemId:Guid&lt;/div&gt;" style="rounded=0;whiteSpace=wrap;html=1;fillColor=#f0a30a;strokeColor=#BD7000;fontColor=#000000;" parent="1" vertex="1">
          <mxGeometry x="870" y="560" width="120" height="100" as="geometry" />
        </mxCell>
        <mxCell id="ByxKJx8sGJnM6fiIf0L5-11" value="&lt;b&gt;Clear Cart&lt;/b&gt;&lt;div&gt;&lt;br&gt;&lt;/div&gt;&lt;div&gt;CartId:Guid&lt;/div&gt;" style="rounded=0;whiteSpace=wrap;html=1;fillColor=#1ba1e2;fontColor=#ffffff;strokeColor=#006EAF;" parent="1" vertex="1">
          <mxGeometry x="1160" y="200" width="120" height="100" as="geometry" />
        </mxCell>
        <mxCell id="ByxKJx8sGJnM6fiIf0L5-12" value="&lt;b&gt;Cart Cleared&lt;/b&gt;&lt;div&gt;&lt;br&gt;&lt;/div&gt;&lt;div&gt;CartId:Guid&lt;/div&gt;" style="rounded=0;whiteSpace=wrap;html=1;fillColor=#f0a30a;strokeColor=#BD7000;fontColor=#000000;" parent="1" vertex="1">
          <mxGeometry x="1200" y="560" width="120" height="100" as="geometry" />
        </mxCell>
        <mxCell id="ByxKJx8sGJnM6fiIf0L5-13" value="" style="endArrow=classic;html=1;rounded=0;fontFamily=Helvetica;fontSize=12;fontColor=default;fontStyle=0;curved=1;edgeStyle=orthogonalEdgeStyle;exitX=0.5;exitY=1;exitDx=0;exitDy=0;entryX=0.5;entryY=0;entryDx=0;entryDy=0;" parent="1" source="ByxKJx8sGJnM6fiIf0L5-9" target="ByxKJx8sGJnM6fiIf0L5-10" edge="1">
          <mxGeometry width="50" height="50" relative="1" as="geometry">
            <mxPoint x="940" y="470" as="sourcePoint" />
            <mxPoint x="990" y="550" as="targetPoint" />
            <Array as="points">
              <mxPoint x="955" y="407" />
              <mxPoint x="930" y="407" />
            </Array>
          </mxGeometry>
        </mxCell>
        <mxCell id="ByxKJx8sGJnM6fiIf0L5-14" value="" style="endArrow=classic;html=1;rounded=0;fontFamily=Helvetica;fontSize=12;fontColor=default;fontStyle=0;curved=1;edgeStyle=orthogonalEdgeStyle;exitX=0.5;exitY=1;exitDx=0;exitDy=0;entryX=0.5;entryY=0;entryDx=0;entryDy=0;" parent="1" source="ByxKJx8sGJnM6fiIf0L5-11" target="ByxKJx8sGJnM6fiIf0L5-12" edge="1">
          <mxGeometry width="50" height="50" relative="1" as="geometry">
            <mxPoint x="1150" y="360" as="sourcePoint" />
            <mxPoint x="1200" y="440" as="targetPoint" />
          </mxGeometry>
        </mxCell>
        <mxCell id="ByxKJx8sGJnM6fiIf0L5-15" value="" style="endArrow=classic;html=1;rounded=0;fontFamily=Helvetica;fontSize=12;fontColor=default;fontStyle=0;curved=1;edgeStyle=orthogonalEdgeStyle;exitX=0.5;exitY=0;exitDx=0;exitDy=0;entryX=0.5;entryY=1;entryDx=0;entryDy=0;" parent="1" source="ByxKJx8sGJnM6fiIf0L5-10" target="ByxKJx8sGJnM6fiIf0L5-6" edge="1">
          <mxGeometry width="50" height="50" relative="1" as="geometry">
            <mxPoint x="790" y="500" as="sourcePoint" />
            <mxPoint x="840" y="580" as="targetPoint" />
          </mxGeometry>
        </mxCell>
        <mxCell id="ByxKJx8sGJnM6fiIf0L5-16" value="" style="endArrow=classic;html=1;rounded=0;fontFamily=Helvetica;fontSize=12;fontColor=default;fontStyle=0;curved=1;edgeStyle=orthogonalEdgeStyle;exitX=0.5;exitY=0;exitDx=0;exitDy=0;entryX=0.5;entryY=1;entryDx=0;entryDy=0;" parent="1" source="ByxKJx8sGJnM6fiIf0L5-12" target="ByxKJx8sGJnM6fiIf0L5-6" edge="1">
          <mxGeometry width="50" height="50" relative="1" as="geometry">
            <mxPoint x="1240" y="550" as="sourcePoint" />
            <mxPoint x="1290" y="630" as="targetPoint" />
          </mxGeometry>
        </mxCell>
        <mxCell id="ByxKJx8sGJnM6fiIf0L5-17" value="" style="group" parent="1" vertex="1" connectable="0">
          <mxGeometry x="2028" y="-300" width="100" height="90" as="geometry" />
        </mxCell>
        <mxCell id="ByxKJx8sGJnM6fiIf0L5-18" value="" style="sketch=0;outlineConnect=0;fillColor=#000000;strokeColor=#000000;dashed=0;verticalLabelPosition=bottom;verticalAlign=top;align=center;html=1;fontSize=12;fontStyle=0;aspect=fixed;pointerEvents=1;shape=mxgraph.aws4.gear;" parent="ByxKJx8sGJnM6fiIf0L5-17" vertex="1">
          <mxGeometry y="20" width="70" height="70" as="geometry" />
        </mxCell>
        <mxCell id="ByxKJx8sGJnM6fiIf0L5-19" value="" style="sketch=0;outlineConnect=0;fillColor=#000000;strokeColor=#000000;dashed=0;verticalLabelPosition=bottom;verticalAlign=top;align=center;html=1;fontSize=12;fontStyle=0;aspect=fixed;pointerEvents=1;shape=mxgraph.aws4.gear;" parent="ByxKJx8sGJnM6fiIf0L5-17" vertex="1">
          <mxGeometry x="60" width="40" height="40" as="geometry" />
        </mxCell>
        <mxCell id="ByxKJx8sGJnM6fiIf0L5-20" value="&lt;b&gt;Change Inventory&lt;/b&gt;&lt;div&gt;&lt;br&gt;&lt;/div&gt;&lt;div&gt;ProductId:Guid&lt;/div&gt;&lt;div&gt;Inventory:int&lt;/div&gt;" style="rounded=0;whiteSpace=wrap;html=1;fillColor=#1ba1e2;fontColor=#ffffff;strokeColor=#006EAF;" parent="1" vertex="1">
          <mxGeometry x="2160" y="200" width="120" height="100" as="geometry" />
        </mxCell>
        <mxCell id="ByxKJx8sGJnM6fiIf0L5-21" value="&lt;b&gt;Inventory Changed&lt;/b&gt;&lt;div&gt;&lt;b&gt;&lt;br&gt;&lt;/b&gt;&lt;/div&gt;&lt;div&gt;&lt;div&gt;ProductId:Guid&lt;/div&gt;&lt;div&gt;Inventory:int&lt;/div&gt;&lt;/div&gt;" style="rounded=0;whiteSpace=wrap;html=1;fillColor=#f0a30a;strokeColor=#BD7000;fontColor=#000000;" parent="1" vertex="1">
          <mxGeometry x="2270" y="800" width="120" height="100" as="geometry" />
        </mxCell>
        <mxCell id="ByxKJx8sGJnM6fiIf0L5-22" value="&lt;b&gt;Inventory Changed&lt;/b&gt;&lt;div&gt;&lt;br&gt;&lt;/div&gt;&lt;div&gt;ProductId:Guid&lt;/div&gt;&lt;div&gt;Inventory:int&lt;/div&gt;" style="rounded=0;whiteSpace=wrap;html=1;fillColor=#ffff88;strokeColor=#36393d;" parent="1" vertex="1">
          <mxGeometry x="1850" y="1245" width="120" height="100" as="geometry" />
        </mxCell>
        <mxCell id="ByxKJx8sGJnM6fiIf0L5-23" value="" style="endArrow=classic;html=1;rounded=0;fontFamily=Helvetica;fontSize=12;fontColor=default;fontStyle=0;curved=1;edgeStyle=orthogonalEdgeStyle;exitX=0.5;exitY=0;exitDx=0;exitDy=0;" parent="1" source="ByxKJx8sGJnM6fiIf0L5-22" target="ByxKJx8sGJnM6fiIf0L5-18" edge="1">
          <mxGeometry width="50" height="50" relative="1" as="geometry">
            <mxPoint x="1830" y="760" as="sourcePoint" />
            <mxPoint x="1770" y="10" as="targetPoint" />
          </mxGeometry>
        </mxCell>
        <mxCell id="ByxKJx8sGJnM6fiIf0L5-24" value="" style="endArrow=classic;html=1;rounded=0;fontFamily=Helvetica;fontSize=12;fontColor=default;fontStyle=0;curved=1;edgeStyle=orthogonalEdgeStyle;entryX=0.5;entryY=0;entryDx=0;entryDy=0;" parent="1" source="ByxKJx8sGJnM6fiIf0L5-19" target="ByxKJx8sGJnM6fiIf0L5-20" edge="1">
          <mxGeometry width="50" height="50" relative="1" as="geometry">
            <mxPoint x="2250" y="150" as="sourcePoint" />
            <mxPoint x="2300" y="230" as="targetPoint" />
          </mxGeometry>
        </mxCell>
        <mxCell id="ByxKJx8sGJnM6fiIf0L5-25" value="" style="endArrow=classic;html=1;rounded=0;fontFamily=Helvetica;fontSize=12;fontColor=default;fontStyle=0;curved=1;edgeStyle=orthogonalEdgeStyle;exitX=0.5;exitY=1;exitDx=0;exitDy=0;entryX=0.5;entryY=0;entryDx=0;entryDy=0;" parent="1" source="ByxKJx8sGJnM6fiIf0L5-20" target="ByxKJx8sGJnM6fiIf0L5-21" edge="1">
          <mxGeometry width="50" height="50" relative="1" as="geometry">
            <mxPoint x="2200" y="450" as="sourcePoint" />
            <mxPoint x="2250" y="530" as="targetPoint" />
          </mxGeometry>
        </mxCell>
        <mxCell id="ByxKJx8sGJnM6fiIf0L5-26" value="" style="group" parent="1" vertex="1" connectable="0">
          <mxGeometry x="2960" y="-290" width="100" height="90" as="geometry" />
        </mxCell>
        <mxCell id="ByxKJx8sGJnM6fiIf0L5-27" value="" style="sketch=0;outlineConnect=0;fillColor=#000000;strokeColor=#000000;dashed=0;verticalLabelPosition=bottom;verticalAlign=top;align=center;html=1;fontSize=12;fontStyle=0;aspect=fixed;pointerEvents=1;shape=mxgraph.aws4.gear;" parent="ByxKJx8sGJnM6fiIf0L5-26" vertex="1">
          <mxGeometry y="20" width="70" height="70" as="geometry" />
        </mxCell>
        <mxCell id="ByxKJx8sGJnM6fiIf0L5-28" value="" style="sketch=0;outlineConnect=0;fillColor=#000000;strokeColor=#000000;dashed=0;verticalLabelPosition=bottom;verticalAlign=top;align=center;html=1;fontSize=12;fontStyle=0;aspect=fixed;pointerEvents=1;shape=mxgraph.aws4.gear;" parent="ByxKJx8sGJnM6fiIf0L5-26" vertex="1">
          <mxGeometry x="60" width="40" height="40" as="geometry" />
        </mxCell>
        <mxCell id="ByxKJx8sGJnM6fiIf0L5-29" value="&lt;b&gt;Price Changed&lt;/b&gt;&lt;div&gt;&lt;br&gt;&lt;/div&gt;&lt;div&gt;ProductId:Guid&lt;/div&gt;&lt;div&gt;OldPrice:decimal&lt;/div&gt;&lt;div&gt;NewPrice:decimal&lt;/div&gt;" style="rounded=0;whiteSpace=wrap;html=1;fillColor=#ffff88;strokeColor=#36393d;" parent="1" vertex="1">
          <mxGeometry x="2830" y="1245" width="120" height="100" as="geometry" />
        </mxCell>
        <mxCell id="ByxKJx8sGJnM6fiIf0L5-30" value="&lt;b&gt;Price Changed&lt;/b&gt;&lt;div&gt;&lt;br&gt;&lt;/div&gt;&lt;div&gt;ProductId:Guid&lt;/div&gt;&lt;div&gt;OldPrice:decimal&lt;/div&gt;&lt;div&gt;NewPrice:decimal&lt;/div&gt;" style="rounded=0;whiteSpace=wrap;html=1;fillColor=#f0a30a;strokeColor=#BD7000;fontColor=#000000;" parent="1" vertex="1">
          <mxGeometry x="3210" y="1025" width="120" height="100" as="geometry" />
        </mxCell>
        <mxCell id="ByxKJx8sGJnM6fiIf0L5-31" value="&lt;b&gt;Change Price&lt;/b&gt;&lt;div&gt;&lt;br&gt;&lt;/div&gt;&lt;div&gt;ProductId:Guid&lt;/div&gt;&lt;div&gt;OldPrice:decimal&lt;/div&gt;&lt;div&gt;NewPrice:decimal&lt;/div&gt;" style="rounded=0;whiteSpace=wrap;html=1;fillColor=#1ba1e2;fontColor=#ffffff;strokeColor=#006EAF;" parent="1" vertex="1">
          <mxGeometry x="3090" y="200" width="120" height="100" as="geometry" />
        </mxCell>
        <mxCell id="ByxKJx8sGJnM6fiIf0L5-32" value="&lt;b&gt;Carts with Products&lt;/b&gt;&lt;div&gt;&lt;br&gt;&lt;/div&gt;&lt;div&gt;CartId:Guid&lt;/div&gt;&lt;div&gt;ProductId:Guid&lt;/div&gt;" style="rounded=0;whiteSpace=wrap;html=1;fillColor=#cdeb8b;strokeColor=#36393d;" parent="1" vertex="1">
          <mxGeometry x="3540" y="200" width="120" height="100" as="geometry" />
        </mxCell>
        <mxCell id="ByxKJx8sGJnM6fiIf0L5-33" value="&lt;b&gt;Changed Prices&lt;/b&gt;&lt;div&gt;&lt;br&gt;&lt;/div&gt;&lt;div&gt;ProductId:Guid&lt;/div&gt;&lt;div&gt;OldPrice:decimal&lt;/div&gt;&lt;div&gt;NewPrice:decimal&lt;/div&gt;" style="rounded=0;whiteSpace=wrap;html=1;fillColor=#cdeb8b;strokeColor=#36393d;" parent="1" vertex="1">
          <mxGeometry x="3750" y="200" width="120" height="100" as="geometry" />
        </mxCell>
        <mxCell id="ByxKJx8sGJnM6fiIf0L5-34" value="&lt;b&gt;Archive Item&lt;/b&gt;&lt;div&gt;&lt;br&gt;&lt;/div&gt;&lt;div&gt;CartId:Guid&lt;/div&gt;&lt;div&gt;ProductId:Guid&lt;/div&gt;" style="rounded=0;whiteSpace=wrap;html=1;fillColor=#1ba1e2;fontColor=#ffffff;strokeColor=#006EAF;" parent="1" vertex="1">
          <mxGeometry x="4075" y="200" width="120" height="100" as="geometry" />
        </mxCell>
        <mxCell id="ByxKJx8sGJnM6fiIf0L5-35" value="&lt;b&gt;Item Archived&lt;/b&gt;&lt;div&gt;&lt;br&gt;&lt;/div&gt;&lt;div&gt;CartId:Guid&lt;/div&gt;&lt;div&gt;ItemId:Guid&lt;/div&gt;" style="rounded=0;whiteSpace=wrap;html=1;fillColor=#f0a30a;strokeColor=#BD7000;fontColor=#000000;" parent="1" vertex="1">
          <mxGeometry x="4120" y="560" width="120" height="100" as="geometry" />
        </mxCell>
        <mxCell id="ByxKJx8sGJnM6fiIf0L5-36" value="" style="endArrow=classic;html=1;rounded=0;fontFamily=Helvetica;fontSize=12;fontColor=default;fontStyle=0;curved=1;edgeStyle=orthogonalEdgeStyle;exitX=0.5;exitY=0;exitDx=0;exitDy=0;" parent="1" source="ByxKJx8sGJnM6fiIf0L5-29" target="ByxKJx8sGJnM6fiIf0L5-27" edge="1">
          <mxGeometry width="50" height="50" relative="1" as="geometry">
            <mxPoint x="2900" y="610" as="sourcePoint" />
            <mxPoint x="2910" y="180" as="targetPoint" />
          </mxGeometry>
        </mxCell>
        <mxCell id="ByxKJx8sGJnM6fiIf0L5-37" value="" style="endArrow=classic;html=1;rounded=0;fontFamily=Helvetica;fontSize=12;fontColor=default;fontStyle=0;curved=1;edgeStyle=orthogonalEdgeStyle;entryX=0.5;entryY=0;entryDx=0;entryDy=0;" parent="1" source="ByxKJx8sGJnM6fiIf0L5-28" target="ByxKJx8sGJnM6fiIf0L5-31" edge="1">
          <mxGeometry width="50" height="50" relative="1" as="geometry">
            <mxPoint x="3260" y="50" as="sourcePoint" />
            <mxPoint x="3310" y="130" as="targetPoint" />
          </mxGeometry>
        </mxCell>
        <mxCell id="ByxKJx8sGJnM6fiIf0L5-38" value="" style="endArrow=classic;html=1;rounded=0;fontFamily=Helvetica;fontSize=12;fontColor=default;fontStyle=0;curved=1;edgeStyle=orthogonalEdgeStyle;exitX=0.5;exitY=1;exitDx=0;exitDy=0;entryX=0.5;entryY=0;entryDx=0;entryDy=0;" parent="1" source="ByxKJx8sGJnM6fiIf0L5-31" target="ByxKJx8sGJnM6fiIf0L5-30" edge="1">
          <mxGeometry width="50" height="50" relative="1" as="geometry">
            <mxPoint x="3230" y="480" as="sourcePoint" />
            <mxPoint x="3280" y="560" as="targetPoint" />
          </mxGeometry>
        </mxCell>
        <mxCell id="ByxKJx8sGJnM6fiIf0L5-39" value="" style="endArrow=classic;html=1;rounded=0;fontFamily=Helvetica;fontSize=12;fontColor=default;fontStyle=0;curved=1;edgeStyle=orthogonalEdgeStyle;exitX=0.5;exitY=0;exitDx=0;exitDy=0;entryX=0.5;entryY=1;entryDx=0;entryDy=0;" parent="1" source="ByxKJx8sGJnM6fiIf0L5-30" target="ByxKJx8sGJnM6fiIf0L5-33" edge="1">
          <mxGeometry width="50" height="50" relative="1" as="geometry">
            <mxPoint x="3390" y="570" as="sourcePoint" />
            <mxPoint x="3440" y="650" as="targetPoint" />
          </mxGeometry>
        </mxCell>
        <mxCell id="ByxKJx8sGJnM6fiIf0L5-40" value="" style="endArrow=classic;html=1;rounded=0;fontFamily=Helvetica;fontSize=12;fontColor=default;fontStyle=0;curved=1;edgeStyle=orthogonalEdgeStyle;exitX=0;exitY=0.5;exitDx=0;exitDy=0;entryX=0.5;entryY=1;entryDx=0;entryDy=0;dashed=1;dashPattern=8 8;" parent="1" source="ByxKJx8sGJnM6fiIf0L5-35" target="ByxKJx8sGJnM6fiIf0L5-32" edge="1">
          <mxGeometry width="50" height="50" relative="1" as="geometry">
            <mxPoint x="3670" y="690" as="sourcePoint" />
            <mxPoint x="3720" y="770" as="targetPoint" />
          </mxGeometry>
        </mxCell>
        <mxCell id="ByxKJx8sGJnM6fiIf0L5-41" value="" style="endArrow=classic;html=1;rounded=0;fontFamily=Helvetica;fontSize=12;fontColor=default;fontStyle=0;curved=1;edgeStyle=orthogonalEdgeStyle;exitX=0.5;exitY=1;exitDx=0;exitDy=0;entryX=0.5;entryY=0;entryDx=0;entryDy=0;" parent="1" source="ByxKJx8sGJnM6fiIf0L5-34" target="ByxKJx8sGJnM6fiIf0L5-35" edge="1">
          <mxGeometry width="50" height="50" relative="1" as="geometry">
            <mxPoint x="4070" y="540" as="sourcePoint" />
            <mxPoint x="4120" y="620" as="targetPoint" />
          </mxGeometry>
        </mxCell>
        <mxCell id="ByxKJx8sGJnM6fiIf0L5-42" value="" style="group" parent="1" vertex="1" connectable="0">
          <mxGeometry x="4023" y="-297" width="100" height="90" as="geometry" />
        </mxCell>
        <mxCell id="ByxKJx8sGJnM6fiIf0L5-43" value="" style="sketch=0;outlineConnect=0;fillColor=#000000;strokeColor=#000000;dashed=0;verticalLabelPosition=bottom;verticalAlign=top;align=center;html=1;fontSize=12;fontStyle=0;aspect=fixed;pointerEvents=1;shape=mxgraph.aws4.gear;" parent="ByxKJx8sGJnM6fiIf0L5-42" vertex="1">
          <mxGeometry y="20" width="70" height="70" as="geometry" />
        </mxCell>
        <mxCell id="ByxKJx8sGJnM6fiIf0L5-44" value="" style="sketch=0;outlineConnect=0;fillColor=#000000;strokeColor=#000000;dashed=0;verticalLabelPosition=bottom;verticalAlign=top;align=center;html=1;fontSize=12;fontStyle=0;aspect=fixed;pointerEvents=1;shape=mxgraph.aws4.gear;" parent="ByxKJx8sGJnM6fiIf0L5-42" vertex="1">
          <mxGeometry x="60" width="40" height="40" as="geometry" />
        </mxCell>
        <mxCell id="ByxKJx8sGJnM6fiIf0L5-45" value="" style="endArrow=classic;html=1;rounded=0;fontFamily=Helvetica;fontSize=12;fontColor=default;fontStyle=0;curved=1;edgeStyle=orthogonalEdgeStyle;exitX=0.5;exitY=0;exitDx=0;exitDy=0;" parent="1" source="ByxKJx8sGJnM6fiIf0L5-32" target="ByxKJx8sGJnM6fiIf0L5-43" edge="1">
          <mxGeometry width="50" height="50" relative="1" as="geometry">
            <mxPoint x="3630" y="100" as="sourcePoint" />
            <mxPoint x="3680" y="180" as="targetPoint" />
          </mxGeometry>
        </mxCell>
        <mxCell id="ByxKJx8sGJnM6fiIf0L5-46" value="" style="endArrow=classic;html=1;rounded=0;fontFamily=Helvetica;fontSize=12;fontColor=default;fontStyle=0;curved=1;edgeStyle=orthogonalEdgeStyle;exitX=0.5;exitY=0;exitDx=0;exitDy=0;" parent="1" source="ByxKJx8sGJnM6fiIf0L5-33" target="ByxKJx8sGJnM6fiIf0L5-43" edge="1">
          <mxGeometry width="50" height="50" relative="1" as="geometry">
            <mxPoint x="3780" y="240" as="sourcePoint" />
            <mxPoint x="3830" y="320" as="targetPoint" />
          </mxGeometry>
        </mxCell>
        <mxCell id="ByxKJx8sGJnM6fiIf0L5-47" value="" style="endArrow=classic;html=1;rounded=0;fontFamily=Helvetica;fontSize=12;fontColor=default;fontStyle=0;curved=1;edgeStyle=orthogonalEdgeStyle;entryX=0.5;entryY=0;entryDx=0;entryDy=0;" parent="1" source="ByxKJx8sGJnM6fiIf0L5-44" target="ByxKJx8sGJnM6fiIf0L5-34" edge="1">
          <mxGeometry width="50" height="50" relative="1" as="geometry">
            <mxPoint x="4180" y="30" as="sourcePoint" />
            <mxPoint x="4230" y="110" as="targetPoint" />
          </mxGeometry>
        </mxCell>
        <mxCell id="ByxKJx8sGJnM6fiIf0L5-48" value="" style="endArrow=classic;html=1;rounded=0;exitX=0.5;exitY=0;exitDx=0;exitDy=0;edgeStyle=orthogonalEdgeStyle;entryX=0.5;entryY=1;entryDx=0;entryDy=0;" parent="1" source="ByxKJx8sGJnM6fiIf0L5-12" target="ByxKJx8sGJnM6fiIf0L5-32" edge="1">
          <mxGeometry width="50" height="50" relative="1" as="geometry">
            <mxPoint x="1310" y="480" as="sourcePoint" />
            <mxPoint x="1360" y="430" as="targetPoint" />
            <Array as="points">
              <mxPoint x="1260" y="500" />
              <mxPoint x="3600" y="500" />
            </Array>
          </mxGeometry>
        </mxCell>
        <mxCell id="ByxKJx8sGJnM6fiIf0L5-49" value="&lt;b&gt;Inventories&lt;/b&gt;&lt;div&gt;&lt;br&gt;&lt;/div&gt;&lt;div&gt;ProductId:Guid&lt;/div&gt;&lt;div&gt;Inventory:int&lt;/div&gt;" style="rounded=0;whiteSpace=wrap;html=1;fillColor=#cdeb8b;strokeColor=#36393d;" parent="1" vertex="1">
          <mxGeometry x="2510" y="200" width="120" height="100" as="geometry" />
        </mxCell>
        <mxCell id="ByxKJx8sGJnM6fiIf0L5-50" value="" style="endArrow=classic;html=1;rounded=0;fontFamily=Helvetica;fontSize=12;fontColor=default;fontStyle=0;curved=1;edgeStyle=orthogonalEdgeStyle;exitX=0.5;exitY=0;exitDx=0;exitDy=0;entryX=0.5;entryY=1;entryDx=0;entryDy=0;" parent="1" source="ByxKJx8sGJnM6fiIf0L5-21" target="ByxKJx8sGJnM6fiIf0L5-49" edge="1">
          <mxGeometry width="50" height="50" relative="1" as="geometry">
            <mxPoint x="2440" y="580" as="sourcePoint" />
            <mxPoint x="2490" y="660" as="targetPoint" />
          </mxGeometry>
        </mxCell>
        <mxCell id="ByxKJx8sGJnM6fiIf0L5-51" value="&lt;font style=&quot;font-size: 16px;&quot;&gt;Inventory Translator&lt;/font&gt;" style="text;strokeColor=none;fillColor=none;align=left;verticalAlign=middle;spacingLeft=4;spacingRight=4;overflow=hidden;points=[[0,0.5],[1,0.5]];portConstraint=eastwest;rotatable=0;whiteSpace=wrap;html=1;" parent="1" vertex="1">
          <mxGeometry x="2021" y="-337" width="190" height="30" as="geometry" />
        </mxCell>
        <mxCell id="ByxKJx8sGJnM6fiIf0L5-52" value="&lt;font style=&quot;font-size: 16px;&quot;&gt;Price Change Translator&lt;/font&gt;" style="text;strokeColor=none;fillColor=none;align=left;verticalAlign=middle;spacingLeft=4;spacingRight=4;overflow=hidden;points=[[0,0.5],[1,0.5]];portConstraint=eastwest;rotatable=0;whiteSpace=wrap;html=1;" parent="1" vertex="1">
          <mxGeometry x="2920" y="-325" width="190" height="30" as="geometry" />
        </mxCell>
        <mxCell id="ByxKJx8sGJnM6fiIf0L5-53" value="&lt;font style=&quot;font-size: 16px;&quot;&gt;Archive Item Scheduler&lt;/font&gt;" style="text;strokeColor=none;fillColor=none;align=left;verticalAlign=middle;spacingLeft=4;spacingRight=4;overflow=hidden;points=[[0,0.5],[1,0.5]];portConstraint=eastwest;rotatable=0;whiteSpace=wrap;html=1;" parent="1" vertex="1">
          <mxGeometry x="3983" y="-337" width="190" height="30" as="geometry" />
        </mxCell>
        <mxCell id="ByxKJx8sGJnM6fiIf0L5-54" value="Window Title" style="strokeWidth=1;shadow=0;dashed=0;align=center;html=1;shape=mxgraph.mockup.containers.window;align=left;verticalAlign=top;spacingLeft=8;strokeColor2=#008cff;strokeColor3=#c4c4c4;fontColor=#666666;mainText=;fontSize=17;labelBackgroundColor=none;whiteSpace=wrap;" parent="1" vertex="1">
          <mxGeometry x="123" y="-88" width="270" height="176" as="geometry" />
        </mxCell>
        <mxCell id="ByxKJx8sGJnM6fiIf0L5-55" value="" style="endArrow=classic;html=1;rounded=0;exitX=0.5;exitY=0;exitDx=0;exitDy=0;entryX=0.5;entryY=1;entryDx=0;entryDy=0;edgeStyle=orthogonalEdgeStyle;" parent="1" source="ByxKJx8sGJnM6fiIf0L5-10" target="ByxKJx8sGJnM6fiIf0L5-32" edge="1">
          <mxGeometry width="50" height="50" relative="1" as="geometry">
            <mxPoint x="1160" y="950" as="sourcePoint" />
            <mxPoint x="3290" y="530" as="targetPoint" />
            <Array as="points">
              <mxPoint x="930" y="500" />
              <mxPoint x="3600" y="500" />
            </Array>
          </mxGeometry>
        </mxCell>
        <mxCell id="ByxKJx8sGJnM6fiIf0L5-56" value="" style="endArrow=classic;html=1;rounded=0;exitX=0.5;exitY=0;exitDx=0;exitDy=0;entryX=0.5;entryY=1;entryDx=0;entryDy=0;edgeStyle=orthogonalEdgeStyle;" parent="1" source="ByxKJx8sGJnM6fiIf0L5-2" target="ByxKJx8sGJnM6fiIf0L5-32" edge="1">
          <mxGeometry width="50" height="50" relative="1" as="geometry">
            <mxPoint x="460" y="940" as="sourcePoint" />
            <mxPoint x="2380" y="390" as="targetPoint" />
            <Array as="points">
              <mxPoint x="380" y="500" />
              <mxPoint x="3600" y="500" />
            </Array>
          </mxGeometry>
        </mxCell>
        <mxCell id="ByxKJx8sGJnM6fiIf0L5-57" value="" style="endArrow=classic;html=1;rounded=0;exitX=0.5;exitY=0;exitDx=0;exitDy=0;entryX=0.5;entryY=1;entryDx=0;entryDy=0;edgeStyle=orthogonalEdgeStyle;" parent="1" source="ByxKJx8sGJnM6fiIf0L5-3" target="ByxKJx8sGJnM6fiIf0L5-32" edge="1">
          <mxGeometry width="50" height="50" relative="1" as="geometry">
            <mxPoint x="480" y="890" as="sourcePoint" />
            <mxPoint x="2430" y="430" as="targetPoint" />
            <Array as="points">
              <mxPoint x="190" y="500" />
              <mxPoint x="3600" y="500" />
            </Array>
          </mxGeometry>
        </mxCell>
        <mxCell id="ByxKJx8sGJnM6fiIf0L5-58" value="" style="endArrow=classic;html=1;rounded=0;fontFamily=Helvetica;fontSize=12;fontColor=default;fontStyle=0;curved=1;edgeStyle=orthogonalEdgeStyle;exitX=0;exitY=0.5;exitDx=0;exitDy=0;entryX=0.5;entryY=1;entryDx=0;entryDy=0;dashed=1;dashPattern=8 8;" parent="1" source="ByxKJx8sGJnM6fiIf0L5-35" target="ByxKJx8sGJnM6fiIf0L5-6" edge="1">
          <mxGeometry width="50" height="50" relative="1" as="geometry">
            <mxPoint x="3960" y="790" as="sourcePoint" />
            <mxPoint x="1800" y="650" as="targetPoint" />
            <Array as="points">
              <mxPoint x="4120" y="930" />
              <mxPoint x="610" y="930" />
            </Array>
          </mxGeometry>
        </mxCell>
        <mxCell id="ByxKJx8sGJnM6fiIf0L5-61" value="&lt;font style=&quot;font-size: 50px;&quot;&gt;Bot&lt;/font&gt;" style="text;strokeColor=none;fillColor=none;align=left;verticalAlign=middle;spacingLeft=4;spacingRight=4;overflow=hidden;points=[[0,0.5],[1,0.5]];portConstraint=eastwest;rotatable=0;whiteSpace=wrap;html=1;" parent="1" vertex="1">
          <mxGeometry x="-460" y="-342" width="190" height="90" as="geometry" />
        </mxCell>
        <mxCell id="ByxKJx8sGJnM6fiIf0L5-62" value="&lt;font style=&quot;font-size: 50px;&quot;&gt;User&lt;/font&gt;" style="text;strokeColor=none;fillColor=none;align=left;verticalAlign=middle;spacingLeft=4;spacingRight=4;overflow=hidden;points=[[0,0.5],[1,0.5]];portConstraint=eastwest;rotatable=0;whiteSpace=wrap;html=1;" parent="1" vertex="1">
          <mxGeometry x="-460" y="-65" width="190" height="90" as="geometry" />
        </mxCell>
        <mxCell id="ByxKJx8sGJnM6fiIf0L5-67" value="&lt;font style=&quot;font-size: 50px;&quot;&gt;Cart&lt;/font&gt;" style="text;strokeColor=none;fillColor=none;align=left;verticalAlign=middle;spacingLeft=4;spacingRight=4;overflow=hidden;points=[[0,0.5],[1,0.5]];portConstraint=eastwest;rotatable=0;whiteSpace=wrap;html=1;" parent="1" vertex="1">
          <mxGeometry x="-460" y="580" width="190" height="90" as="geometry" />
        </mxCell>
        <mxCell id="ByxKJx8sGJnM6fiIf0L5-68" value="&lt;font style=&quot;font-size: 50px;&quot;&gt;Inventory&lt;/font&gt;" style="text;strokeColor=none;fillColor=none;align=left;verticalAlign=middle;spacingLeft=4;spacingRight=4;overflow=hidden;points=[[0,0.5],[1,0.5]];portConstraint=eastwest;rotatable=0;whiteSpace=wrap;html=1;" parent="1" vertex="1">
          <mxGeometry x="-460" y="805" width="190" height="90" as="geometry" />
        </mxCell>
        <mxCell id="ByxKJx8sGJnM6fiIf0L5-69" value="&lt;font style=&quot;font-size: 50px;&quot;&gt;Pricing&lt;/font&gt;" style="text;strokeColor=none;fillColor=none;align=left;verticalAlign=middle;spacingLeft=4;spacingRight=4;overflow=hidden;points=[[0,0.5],[1,0.5]];portConstraint=eastwest;rotatable=0;whiteSpace=wrap;html=1;" parent="1" vertex="1">
          <mxGeometry x="-460" y="1030" width="190" height="90" as="geometry" />
        </mxCell>
        <mxCell id="ByxKJx8sGJnM6fiIf0L5-70" value="&lt;font style=&quot;font-size: 50px;&quot;&gt;External&lt;/font&gt;" style="text;strokeColor=none;fillColor=none;align=left;verticalAlign=middle;spacingLeft=4;spacingRight=4;overflow=hidden;points=[[0,0.5],[1,0.5]];portConstraint=eastwest;rotatable=0;whiteSpace=wrap;html=1;" parent="1" vertex="1">
          <mxGeometry x="-460" y="1250" width="190" height="90" as="geometry" />
        </mxCell>
        <mxCell id="ByxKJx8sGJnM6fiIf0L5-80" value="" style="group" parent="1" vertex="1" connectable="0">
          <mxGeometry x="5213" y="-292" width="100" height="90" as="geometry" />
        </mxCell>
        <mxCell id="ByxKJx8sGJnM6fiIf0L5-81" value="" style="sketch=0;outlineConnect=0;fillColor=#000000;strokeColor=#000000;dashed=0;verticalLabelPosition=bottom;verticalAlign=top;align=center;html=1;fontSize=12;fontStyle=0;aspect=fixed;pointerEvents=1;shape=mxgraph.aws4.gear;" parent="ByxKJx8sGJnM6fiIf0L5-80" vertex="1">
          <mxGeometry y="20" width="70" height="70" as="geometry" />
        </mxCell>
        <mxCell id="ByxKJx8sGJnM6fiIf0L5-82" value="" style="sketch=0;outlineConnect=0;fillColor=#000000;strokeColor=#000000;dashed=0;verticalLabelPosition=bottom;verticalAlign=top;align=center;html=1;fontSize=12;fontStyle=0;aspect=fixed;pointerEvents=1;shape=mxgraph.aws4.gear;" parent="ByxKJx8sGJnM6fiIf0L5-80" vertex="1">
          <mxGeometry x="60" width="40" height="40" as="geometry" />
        </mxCell>
        <mxCell id="ByxKJx8sGJnM6fiIf0L5-83" value="&lt;b&gt;Submit Cart&lt;/b&gt;&lt;div&gt;&lt;br&gt;&lt;/div&gt;&lt;div&gt;CartId:Guid&lt;/div&gt;&lt;div&gt;OrderedProducts:[{}]&lt;/div&gt;" style="rounded=0;whiteSpace=wrap;html=1;fillColor=#1ba1e2;fontColor=#ffffff;strokeColor=#006EAF;" parent="1" vertex="1">
          <mxGeometry x="4550" y="200" width="120" height="100" as="geometry" />
        </mxCell>
        <mxCell id="ByxKJx8sGJnM6fiIf0L5-84" value="&lt;b&gt;Cart Submitted&lt;/b&gt;&lt;div&gt;&lt;br&gt;&lt;/div&gt;&lt;div&gt;CartId:Guid&lt;/div&gt;&lt;div&gt;OrderedProducts:&lt;/div&gt;&lt;div&gt;[{ ProductId, Price&amp;nbsp;&lt;span style=&quot;background-color: transparent; color: light-dark(rgb(0, 0, 0), rgb(237, 237, 237));&quot;&gt;}]&lt;/span&gt;&lt;/div&gt;&lt;div&gt;&lt;span style=&quot;background-color: transparent; color: light-dark(rgb(0, 0, 0), rgb(237, 237, 237));&quot;&gt;TotalPrice:decimal&lt;/span&gt;&lt;/div&gt;" style="rounded=0;whiteSpace=wrap;html=1;fillColor=#f0a30a;strokeColor=#BD7000;fontColor=#000000;" parent="1" vertex="1">
          <mxGeometry x="4550" y="575" width="160" height="100" as="geometry" />
        </mxCell>
        <mxCell id="ByxKJx8sGJnM6fiIf0L5-85" value="&lt;b&gt;Submitted Cart Data&lt;/b&gt;&lt;div&gt;&lt;br&gt;&lt;/div&gt;&lt;div&gt;CartId:Guid&lt;/div&gt;&lt;div&gt;OrderedProducts:&lt;/div&gt;&lt;div&gt;[{ ProductId, Price&amp;nbsp;&lt;span style=&quot;background-color: transparent; color: light-dark(rgb(0, 0, 0), rgb(237, 237, 237));&quot;&gt;}]&lt;/span&gt;&lt;/div&gt;&lt;div&gt;&lt;span style=&quot;background-color: transparent; color: light-dark(rgb(0, 0, 0), rgb(237, 237, 237));&quot;&gt;TotalPrice:decimal&lt;/span&gt;&lt;/div&gt;" style="rounded=0;whiteSpace=wrap;html=1;fillColor=#cdeb8b;strokeColor=#36393d;" parent="1" vertex="1">
          <mxGeometry x="4930" y="200" width="120" height="100" as="geometry" />
        </mxCell>
        <mxCell id="ByxKJx8sGJnM6fiIf0L5-86" value="&lt;b&gt;Publish Cart&lt;/b&gt;&lt;div&gt;&lt;b&gt;&lt;br&gt;&lt;/b&gt;&lt;/div&gt;&lt;div&gt;&lt;div style=&quot;&quot;&gt;&lt;font style=&quot;color: rgb(255, 255, 255);&quot;&gt;CartId:Guid&lt;/font&gt;&lt;/div&gt;&lt;div style=&quot;&quot;&gt;&lt;font style=&quot;color: rgb(255, 255, 255);&quot;&gt;OrderedProducts:&lt;/font&gt;&lt;/div&gt;&lt;div style=&quot;&quot;&gt;&lt;font style=&quot;color: rgb(255, 255, 255);&quot;&gt;[{ ProductId, Price&amp;nbsp;&lt;span style=&quot;background-color: transparent;&quot;&gt;}]&lt;/span&gt;&lt;/font&gt;&lt;/div&gt;&lt;div style=&quot;&quot;&gt;&lt;span style=&quot;background-color: transparent;&quot;&gt;&lt;font style=&quot;color: rgb(255, 255, 255);&quot;&gt;TotalPrice:decimal&lt;/font&gt;&lt;/span&gt;&lt;/div&gt;&lt;/div&gt;" style="rounded=0;whiteSpace=wrap;html=1;fillColor=#1ba1e2;fontColor=#ffffff;strokeColor=#006EAF;" parent="1" vertex="1">
          <mxGeometry x="5400" y="200" width="120" height="100" as="geometry" />
        </mxCell>
        <mxCell id="ByxKJx8sGJnM6fiIf0L5-87" value="&lt;b&gt;External Cart Published&lt;/b&gt;&lt;div&gt;&lt;b&gt;&lt;br&gt;&lt;/b&gt;&lt;div&gt;&lt;div&gt;CartId:Guid&lt;/div&gt;&lt;div&gt;OrderedProducts:&lt;/div&gt;&lt;div&gt;[{ ProductId, Price&amp;nbsp;&lt;span style=&quot;background-color: transparent; color: light-dark(rgb(0, 0, 0), rgb(237, 237, 237));&quot;&gt;}]&lt;/span&gt;&lt;/div&gt;&lt;div&gt;&lt;span style=&quot;background-color: transparent; color: light-dark(rgb(0, 0, 0), rgb(237, 237, 237));&quot;&gt;TotalPrice:decimal&lt;/span&gt;&lt;/div&gt;&lt;/div&gt;&lt;/div&gt;" style="rounded=0;whiteSpace=wrap;html=1;fillColor=#ffff88;strokeColor=#36393d;" parent="1" vertex="1">
          <mxGeometry x="5470" y="1250" width="120" height="100" as="geometry" />
        </mxCell>
        <mxCell id="ByxKJx8sGJnM6fiIf0L5-88" value="" style="endArrow=classic;html=1;rounded=0;fontFamily=Helvetica;fontSize=12;fontColor=default;fontStyle=0;curved=1;edgeStyle=orthogonalEdgeStyle;exitX=0.5;exitY=1;exitDx=0;exitDy=0;entryX=0.5;entryY=0;entryDx=0;entryDy=0;" parent="1" source="ByxKJx8sGJnM6fiIf0L5-83" target="ByxKJx8sGJnM6fiIf0L5-84" edge="1">
          <mxGeometry width="50" height="50" relative="1" as="geometry">
            <mxPoint x="4620" y="390" as="sourcePoint" />
            <mxPoint x="4670" y="470" as="targetPoint" />
          </mxGeometry>
        </mxCell>
        <mxCell id="ByxKJx8sGJnM6fiIf0L5-89" value="" style="endArrow=classic;html=1;rounded=0;fontFamily=Helvetica;fontSize=12;fontColor=default;fontStyle=0;curved=1;edgeStyle=orthogonalEdgeStyle;exitX=0.5;exitY=0;exitDx=0;exitDy=0;entryX=0.5;entryY=1;entryDx=0;entryDy=0;" parent="1" source="ByxKJx8sGJnM6fiIf0L5-84" target="ByxKJx8sGJnM6fiIf0L5-85" edge="1">
          <mxGeometry width="50" height="50" relative="1" as="geometry">
            <mxPoint x="4820" y="420" as="sourcePoint" />
            <mxPoint x="4870" y="500" as="targetPoint" />
          </mxGeometry>
        </mxCell>
        <mxCell id="ByxKJx8sGJnM6fiIf0L5-90" value="" style="endArrow=classic;html=1;rounded=0;fontFamily=Helvetica;fontSize=12;fontColor=default;fontStyle=0;curved=1;edgeStyle=orthogonalEdgeStyle;entryX=0.5;entryY=1;entryDx=0;entryDy=0;exitX=0;exitY=0.5;exitDx=0;exitDy=0;dashed=1;dashPattern=8 8;" parent="1" source="ByxKJx8sGJnM6fiIf0L5-87" target="ByxKJx8sGJnM6fiIf0L5-85" edge="1">
          <mxGeometry width="50" height="50" relative="1" as="geometry">
            <mxPoint x="5310" y="470" as="sourcePoint" />
            <mxPoint x="5360" y="550" as="targetPoint" />
          </mxGeometry>
        </mxCell>
        <mxCell id="ByxKJx8sGJnM6fiIf0L5-91" value="" style="endArrow=classic;html=1;rounded=0;fontFamily=Helvetica;fontSize=12;fontColor=default;fontStyle=0;curved=1;edgeStyle=orthogonalEdgeStyle;entryX=0.5;entryY=0;entryDx=0;entryDy=0;exitX=0.5;exitY=1;exitDx=0;exitDy=0;" parent="1" source="ByxKJx8sGJnM6fiIf0L5-86" target="ByxKJx8sGJnM6fiIf0L5-87" edge="1">
          <mxGeometry width="50" height="50" relative="1" as="geometry">
            <mxPoint x="5270" y="370" as="sourcePoint" />
            <mxPoint x="5320" y="450" as="targetPoint" />
          </mxGeometry>
        </mxCell>
        <mxCell id="ByxKJx8sGJnM6fiIf0L5-92" value="&lt;font style=&quot;font-size: 16px;&quot;&gt;Cart publisher&lt;/font&gt;" style="text;strokeColor=none;fillColor=none;align=left;verticalAlign=middle;spacingLeft=4;spacingRight=4;overflow=hidden;points=[[0,0.5],[1,0.5]];portConstraint=eastwest;rotatable=0;whiteSpace=wrap;html=1;" parent="1" vertex="1">
          <mxGeometry x="5218" y="-337" width="190" height="30" as="geometry" />
        </mxCell>
        <mxCell id="ByxKJx8sGJnM6fiIf0L5-93" value="" style="endArrow=classic;html=1;rounded=0;fontFamily=Helvetica;fontSize=12;fontColor=default;fontStyle=0;curved=1;edgeStyle=orthogonalEdgeStyle;exitX=0.5;exitY=0;exitDx=0;exitDy=0;" parent="1" source="ByxKJx8sGJnM6fiIf0L5-85" target="ByxKJx8sGJnM6fiIf0L5-81" edge="1">
          <mxGeometry width="50" height="50" relative="1" as="geometry">
            <mxPoint x="5040" y="-40" as="sourcePoint" />
            <mxPoint x="5090" y="40" as="targetPoint" />
          </mxGeometry>
        </mxCell>
        <mxCell id="ByxKJx8sGJnM6fiIf0L5-94" value="" style="endArrow=classic;html=1;rounded=0;fontFamily=Helvetica;fontSize=12;fontColor=default;fontStyle=0;curved=1;edgeStyle=orthogonalEdgeStyle;entryX=0.5;entryY=0;entryDx=0;entryDy=0;" parent="1" source="ByxKJx8sGJnM6fiIf0L5-82" target="ByxKJx8sGJnM6fiIf0L5-86" edge="1">
          <mxGeometry width="50" height="50" relative="1" as="geometry">
            <mxPoint x="5550" y="-290" as="sourcePoint" />
            <mxPoint x="5600" y="-210" as="targetPoint" />
          </mxGeometry>
        </mxCell>
        <mxCell id="ByxKJx8sGJnM6fiIf0L5-95" value="&lt;b&gt;Cart Published&lt;/b&gt;&lt;div&gt;&lt;br&gt;&lt;/div&gt;&lt;div&gt;CartId:Guid&lt;/div&gt;" style="rounded=0;whiteSpace=wrap;html=1;fillColor=#f0a30a;strokeColor=#BD7000;fontColor=#000000;" parent="1" vertex="1">
          <mxGeometry x="5580" y="580" width="120" height="100" as="geometry" />
        </mxCell>
        <mxCell id="ByxKJx8sGJnM6fiIf0L5-96" value="&lt;b&gt;Cart Publication Failed&lt;/b&gt;&lt;div&gt;&lt;br&gt;&lt;/div&gt;&lt;div&gt;CartId:Guid&lt;/div&gt;" style="rounded=0;whiteSpace=wrap;html=1;fillColor=#f0a30a;strokeColor=#BD7000;fontColor=#000000;" parent="1" vertex="1">
          <mxGeometry x="5780" y="580" width="120" height="100" as="geometry" />
        </mxCell>
        <mxCell id="ByxKJx8sGJnM6fiIf0L5-97" value="" style="endArrow=classic;html=1;rounded=0;fontFamily=Helvetica;fontSize=12;fontColor=default;fontStyle=0;curved=1;edgeStyle=orthogonalEdgeStyle;exitX=0.5;exitY=1;exitDx=0;exitDy=0;entryX=0.5;entryY=0;entryDx=0;entryDy=0;" parent="1" source="ByxKJx8sGJnM6fiIf0L5-86" target="ByxKJx8sGJnM6fiIf0L5-95" edge="1">
          <mxGeometry width="50" height="50" relative="1" as="geometry">
            <mxPoint x="5550" y="370" as="sourcePoint" />
            <mxPoint x="5600" y="450" as="targetPoint" />
          </mxGeometry>
        </mxCell>
        <mxCell id="ByxKJx8sGJnM6fiIf0L5-98" value="" style="endArrow=classic;html=1;rounded=0;fontFamily=Helvetica;fontSize=12;fontColor=default;fontStyle=0;curved=1;edgeStyle=orthogonalEdgeStyle;exitX=0.5;exitY=1;exitDx=0;exitDy=0;entryX=0.5;entryY=0;entryDx=0;entryDy=0;" parent="1" source="ByxKJx8sGJnM6fiIf0L5-86" target="ByxKJx8sGJnM6fiIf0L5-96" edge="1">
          <mxGeometry width="50" height="50" relative="1" as="geometry">
            <mxPoint x="5570" y="330" as="sourcePoint" />
            <mxPoint x="5620" y="410" as="targetPoint" />
          </mxGeometry>
        </mxCell>
        <mxCell id="ByxKJx8sGJnM6fiIf0L5-99" value="Add" style="strokeWidth=1;shadow=0;dashed=0;align=center;html=1;shape=mxgraph.mockup.buttons.button;strokeColor=#666666;fontColor=#ffffff;mainText=;buttonStyle=round;fontSize=17;fontStyle=1;fillColor=#008cff;whiteSpace=wrap;" parent="1" vertex="1">
          <mxGeometry x="329" y="55" width="60" height="25" as="geometry" />
        </mxCell>
        <mxCell id="ByxKJx8sGJnM6fiIf0L5-100" value="Total: 0,00 €" style="text;html=1;align=center;verticalAlign=middle;whiteSpace=wrap;rounded=0;" parent="1" vertex="1">
          <mxGeometry x="224" y="21" width="99" height="30" as="geometry" />
        </mxCell>
        <mxCell id="ByxKJx8sGJnM6fiIf0L5-101" value="" style="endArrow=classic;html=1;rounded=0;fontFamily=Helvetica;fontSize=12;fontColor=default;fontStyle=0;curved=1;edgeStyle=orthogonalEdgeStyle;exitX=0.516;exitY=0.945;exitDx=0;exitDy=0;exitPerimeter=0;" parent="1" source="ByxKJx8sGJnM6fiIf0L5-99" target="ByxKJx8sGJnM6fiIf0L5-1" edge="1">
          <mxGeometry width="50" height="50" relative="1" as="geometry">
            <mxPoint x="338" y="181" as="sourcePoint" />
            <mxPoint x="388" y="261" as="targetPoint" />
            <Array as="points">
              <mxPoint x="364" y="151" />
              <mxPoint x="220" y="151" />
            </Array>
          </mxGeometry>
        </mxCell>
        <mxCell id="ByxKJx8sGJnM6fiIf0L5-102" value="Window Title" style="strokeWidth=1;shadow=0;dashed=0;align=center;html=1;shape=mxgraph.mockup.containers.window;align=left;verticalAlign=top;spacingLeft=8;strokeColor2=#008cff;strokeColor3=#c4c4c4;fontColor=#666666;mainText=;fontSize=17;labelBackgroundColor=none;whiteSpace=wrap;" parent="1" vertex="1">
          <mxGeometry x="793" y="-88" width="270" height="176" as="geometry" />
        </mxCell>
        <mxCell id="ByxKJx8sGJnM6fiIf0L5-103" value="Add" style="strokeWidth=1;shadow=0;dashed=0;align=center;html=1;shape=mxgraph.mockup.buttons.button;strokeColor=#666666;fontColor=#ffffff;mainText=;buttonStyle=round;fontSize=17;fontStyle=1;fillColor=#008cff;whiteSpace=wrap;" parent="1" vertex="1">
          <mxGeometry x="858.5" y="55" width="60" height="25" as="geometry" />
        </mxCell>
        <mxCell id="ByxKJx8sGJnM6fiIf0L5-104" value="Clear" style="strokeWidth=1;shadow=0;dashed=0;align=center;html=1;shape=mxgraph.mockup.buttons.button;strokeColor=#666666;fontColor=#ffffff;mainText=;buttonStyle=round;fontSize=17;fontStyle=1;fillColor=#008cff;whiteSpace=wrap;" parent="1" vertex="1">
          <mxGeometry x="927.5" y="55" width="60" height="25" as="geometry" />
        </mxCell>
        <mxCell id="ByxKJx8sGJnM6fiIf0L5-105" value="Order" style="strokeWidth=1;shadow=0;dashed=0;align=center;html=1;shape=mxgraph.mockup.buttons.button;strokeColor=#666666;fontColor=#ffffff;mainText=;buttonStyle=round;fontSize=17;fontStyle=1;fillColor=#008cff;whiteSpace=wrap;" parent="1" vertex="1">
          <mxGeometry x="995.5" y="55" width="60" height="25" as="geometry" />
        </mxCell>
        <mxCell id="ByxKJx8sGJnM6fiIf0L5-106" value="Arabica" style="text;html=1;align=center;verticalAlign=middle;whiteSpace=wrap;rounded=0;" parent="1" vertex="1">
          <mxGeometry x="806.5" y="-51" width="60" height="30" as="geometry" />
        </mxCell>
        <mxCell id="ByxKJx8sGJnM6fiIf0L5-107" value="Total: 14,99 €" style="text;html=1;align=center;verticalAlign=middle;whiteSpace=wrap;rounded=0;" parent="1" vertex="1">
          <mxGeometry x="872.5" y="14" width="99" height="30" as="geometry" />
        </mxCell>
        <mxCell id="ByxKJx8sGJnM6fiIf0L5-108" value="-" style="strokeWidth=1;shadow=0;dashed=0;align=center;html=1;shape=mxgraph.mockup.buttons.button;strokeColor=#666666;fontColor=#ffffff;mainText=;buttonStyle=round;fontSize=17;fontStyle=1;fillColor=#008cff;whiteSpace=wrap;" parent="1" vertex="1">
          <mxGeometry x="1029.5" y="-46" width="20" height="25" as="geometry" />
        </mxCell>
        <mxCell id="ByxKJx8sGJnM6fiIf0L5-109" value="1" style="strokeWidth=1;shadow=0;dashed=0;align=center;html=1;shape=mxgraph.mockup.forms.spinner;strokeColor=#999999;spinLayout=right;spinStyle=normal;adjStyle=triangle;fillColor=#aaddff;fontSize=17;fontColor=#666666;mainText=;html=1;overflow=fill;" parent="1" vertex="1">
          <mxGeometry x="959.5" y="-42" width="60" height="17" as="geometry" />
        </mxCell>
        <mxCell id="ByxKJx8sGJnM6fiIf0L5-110" value="14,99" style="text;html=1;align=center;verticalAlign=middle;whiteSpace=wrap;rounded=0;" parent="1" vertex="1">
          <mxGeometry x="884.5" y="-48.5" width="99" height="30" as="geometry" />
        </mxCell>
        <mxCell id="ByxKJx8sGJnM6fiIf0L5-111" value="&lt;font style=&quot;font-size: 8px;&quot;&gt;3 available&lt;/font&gt;" style="text;html=1;align=center;verticalAlign=middle;whiteSpace=wrap;rounded=0;" parent="1" vertex="1">
          <mxGeometry x="806.5" y="-42" width="60" height="30" as="geometry" />
        </mxCell>
        <mxCell id="ByxKJx8sGJnM6fiIf0L5-112" value="" style="endArrow=classic;html=1;rounded=0;fontFamily=Helvetica;fontSize=12;fontColor=default;fontStyle=0;curved=1;edgeStyle=orthogonalEdgeStyle;exitX=0.5;exitY=0;exitDx=0;exitDy=0;entryX=0.011;entryY=0.531;entryDx=0;entryDy=0;entryPerimeter=0;" parent="1" source="ByxKJx8sGJnM6fiIf0L5-6" target="ByxKJx8sGJnM6fiIf0L5-102" edge="1">
          <mxGeometry width="50" height="50" relative="1" as="geometry">
            <mxPoint x="602" y="155" as="sourcePoint" />
            <mxPoint x="654" y="232" as="targetPoint" />
            <Array as="points">
              <mxPoint x="610" y="6" />
            </Array>
          </mxGeometry>
        </mxCell>
        <mxCell id="ByxKJx8sGJnM6fiIf0L5-115" value="" style="endArrow=classic;html=1;rounded=0;fontFamily=Helvetica;fontSize=12;fontColor=default;fontStyle=0;curved=1;edgeStyle=orthogonalEdgeStyle;entryX=0.5;entryY=0;entryDx=0;entryDy=0;" parent="1" source="ByxKJx8sGJnM6fiIf0L5-108" target="ByxKJx8sGJnM6fiIf0L5-9" edge="1">
          <mxGeometry width="50" height="50" relative="1" as="geometry">
            <mxPoint x="1032.88" y="169.32500000000005" as="sourcePoint" />
            <mxPoint x="918.5" y="-400" as="targetPoint" />
            <Array as="points">
              <mxPoint x="1070" y="-34" />
              <mxPoint x="1070" y="151" />
              <mxPoint x="955" y="151" />
            </Array>
          </mxGeometry>
        </mxCell>
        <mxCell id="ByxKJx8sGJnM6fiIf0L5-118" value="Window Title" style="strokeWidth=1;shadow=0;dashed=0;align=center;html=1;shape=mxgraph.mockup.containers.window;align=left;verticalAlign=top;spacingLeft=8;strokeColor2=#008cff;strokeColor3=#c4c4c4;fontColor=#666666;mainText=;fontSize=17;labelBackgroundColor=none;whiteSpace=wrap;" parent="1" vertex="1">
          <mxGeometry x="1509" y="-88" width="270" height="176" as="geometry" />
        </mxCell>
        <mxCell id="ByxKJx8sGJnM6fiIf0L5-119" value="Add" style="strokeWidth=1;shadow=0;dashed=0;align=center;html=1;shape=mxgraph.mockup.buttons.button;strokeColor=#666666;fontColor=#ffffff;mainText=;buttonStyle=round;fontSize=17;fontStyle=1;fillColor=#008cff;whiteSpace=wrap;" parent="1" vertex="1">
          <mxGeometry x="1707" y="55" width="60" height="25" as="geometry" />
        </mxCell>
        <mxCell id="ByxKJx8sGJnM6fiIf0L5-120" value="Total: 0,00 €" style="text;html=1;align=center;verticalAlign=middle;whiteSpace=wrap;rounded=0;" parent="1" vertex="1">
          <mxGeometry x="1605" y="19" width="99" height="30" as="geometry" />
        </mxCell>
        <mxCell id="ByxKJx8sGJnM6fiIf0L5-121" value="&lt;b&gt;Cart Items&lt;/b&gt;&lt;div&gt;&lt;br&gt;&lt;/div&gt;&lt;div&gt;Description:string&lt;/div&gt;&lt;div&gt;Image:string&lt;/div&gt;&lt;div&gt;Price:decimal&lt;/div&gt;&lt;div&gt;TotalPrice:decimal&lt;/div&gt;" style="rounded=0;whiteSpace=wrap;html=1;fillColor=#cdeb8b;strokeColor=#36393d;" parent="1" vertex="1">
          <mxGeometry x="1558" y="208" width="120" height="100" as="geometry" />
        </mxCell>
        <mxCell id="ByxKJx8sGJnM6fiIf0L5-122" value="" style="endArrow=classic;html=1;rounded=0;fontFamily=Helvetica;fontSize=12;fontColor=default;fontStyle=0;curved=1;edgeStyle=orthogonalEdgeStyle;exitX=0.5;exitY=0;exitDx=0;exitDy=0;entryX=0.5;entryY=1;entryDx=0;entryDy=0;" parent="1" source="ByxKJx8sGJnM6fiIf0L5-12" target="ByxKJx8sGJnM6fiIf0L5-121" edge="1">
          <mxGeometry width="50" height="50" relative="1" as="geometry">
            <mxPoint x="1441" y="441" as="sourcePoint" />
            <mxPoint x="1491" y="521" as="targetPoint" />
          </mxGeometry>
        </mxCell>
        <mxCell id="ByxKJx8sGJnM6fiIf0L5-123" value="" style="endArrow=classic;html=1;rounded=0;fontFamily=Helvetica;fontSize=12;fontColor=default;fontStyle=0;curved=1;edgeStyle=orthogonalEdgeStyle;exitX=0.5;exitY=0;exitDx=0;exitDy=0;" parent="1" source="ByxKJx8sGJnM6fiIf0L5-121" target="ByxKJx8sGJnM6fiIf0L5-118" edge="1">
          <mxGeometry width="50" height="50" relative="1" as="geometry">
            <mxPoint x="1663" y="191" as="sourcePoint" />
            <mxPoint x="1713" y="271" as="targetPoint" />
          </mxGeometry>
        </mxCell>
        <mxCell id="ByxKJx8sGJnM6fiIf0L5-126" value="Window Title" style="strokeWidth=1;shadow=0;dashed=0;align=center;html=1;shape=mxgraph.mockup.containers.window;align=left;verticalAlign=top;spacingLeft=8;strokeColor2=#008cff;strokeColor3=#c4c4c4;fontColor=#666666;mainText=;fontSize=17;labelBackgroundColor=none;whiteSpace=wrap;" parent="1" vertex="1">
          <mxGeometry x="1138" y="-88" width="270" height="176" as="geometry" />
        </mxCell>
        <mxCell id="ByxKJx8sGJnM6fiIf0L5-127" value="Add" style="strokeWidth=1;shadow=0;dashed=0;align=center;html=1;shape=mxgraph.mockup.buttons.button;strokeColor=#666666;fontColor=#ffffff;mainText=;buttonStyle=round;fontSize=17;fontStyle=1;fillColor=#008cff;whiteSpace=wrap;" parent="1" vertex="1">
          <mxGeometry x="1203.5" y="55" width="60" height="25" as="geometry" />
        </mxCell>
        <mxCell id="ByxKJx8sGJnM6fiIf0L5-128" value="Clear" style="strokeWidth=1;shadow=0;dashed=0;align=center;html=1;shape=mxgraph.mockup.buttons.button;strokeColor=#666666;fontColor=#ffffff;mainText=;buttonStyle=round;fontSize=17;fontStyle=1;fillColor=#008cff;whiteSpace=wrap;" parent="1" vertex="1">
          <mxGeometry x="1272.5" y="55" width="60" height="25" as="geometry" />
        </mxCell>
        <mxCell id="ByxKJx8sGJnM6fiIf0L5-129" value="Order" style="strokeWidth=1;shadow=0;dashed=0;align=center;html=1;shape=mxgraph.mockup.buttons.button;strokeColor=#666666;fontColor=#ffffff;mainText=;buttonStyle=round;fontSize=17;fontStyle=1;fillColor=#008cff;whiteSpace=wrap;" parent="1" vertex="1">
          <mxGeometry x="1340.5" y="55" width="60" height="25" as="geometry" />
        </mxCell>
        <mxCell id="ByxKJx8sGJnM6fiIf0L5-130" value="Arabica" style="text;html=1;align=center;verticalAlign=middle;whiteSpace=wrap;rounded=0;" parent="1" vertex="1">
          <mxGeometry x="1151.5" y="-51" width="60" height="30" as="geometry" />
        </mxCell>
        <mxCell id="ByxKJx8sGJnM6fiIf0L5-131" value="Total: 14,99 €" style="text;html=1;align=center;verticalAlign=middle;whiteSpace=wrap;rounded=0;" parent="1" vertex="1">
          <mxGeometry x="1217.5" y="14" width="99" height="30" as="geometry" />
        </mxCell>
        <mxCell id="ByxKJx8sGJnM6fiIf0L5-132" value="-" style="strokeWidth=1;shadow=0;dashed=0;align=center;html=1;shape=mxgraph.mockup.buttons.button;strokeColor=#666666;fontColor=#ffffff;mainText=;buttonStyle=round;fontSize=17;fontStyle=1;fillColor=#008cff;whiteSpace=wrap;" parent="1" vertex="1">
          <mxGeometry x="1374.5" y="-46" width="20" height="25" as="geometry" />
        </mxCell>
        <mxCell id="ByxKJx8sGJnM6fiIf0L5-133" value="14,99" style="text;html=1;align=center;verticalAlign=middle;whiteSpace=wrap;rounded=0;" parent="1" vertex="1">
          <mxGeometry x="1229.5" y="-48.5" width="99" height="30.5" as="geometry" />
        </mxCell>
        <mxCell id="ByxKJx8sGJnM6fiIf0L5-134" value="&lt;font style=&quot;font-size: 8px;&quot;&gt;3 available&lt;/font&gt;" style="text;html=1;align=center;verticalAlign=middle;whiteSpace=wrap;rounded=0;" parent="1" vertex="1">
          <mxGeometry x="1151.5" y="-42" width="60" height="30" as="geometry" />
        </mxCell>
        <mxCell id="ByxKJx8sGJnM6fiIf0L5-117" value="" style="endArrow=classic;html=1;rounded=0;fontFamily=Helvetica;fontSize=12;fontColor=default;fontStyle=0;curved=1;edgeStyle=orthogonalEdgeStyle;" parent="1" target="ByxKJx8sGJnM6fiIf0L5-11" edge="1">
          <mxGeometry width="50" height="50" relative="1" as="geometry">
            <mxPoint x="1305" y="79" as="sourcePoint" />
            <mxPoint x="1199" y="183" as="targetPoint" />
            <Array as="points">
              <mxPoint x="1305" y="107" />
              <mxPoint x="1220" y="107" />
            </Array>
          </mxGeometry>
        </mxCell>
        <mxCell id="ByxKJx8sGJnM6fiIf0L5-135" value="Window Title" style="strokeWidth=1;shadow=0;dashed=0;align=center;html=1;shape=mxgraph.mockup.containers.window;align=left;verticalAlign=top;spacingLeft=8;strokeColor2=#008cff;strokeColor3=#c4c4c4;fontColor=#666666;mainText=;fontSize=17;labelBackgroundColor=none;whiteSpace=wrap;" parent="1" vertex="1">
          <mxGeometry x="4426" y="-79" width="270" height="176" as="geometry" />
        </mxCell>
        <mxCell id="ByxKJx8sGJnM6fiIf0L5-136" value="Add" style="strokeWidth=1;shadow=0;dashed=0;align=center;html=1;shape=mxgraph.mockup.buttons.button;strokeColor=#666666;fontColor=#ffffff;mainText=;buttonStyle=round;fontSize=17;fontStyle=1;fillColor=#008cff;whiteSpace=wrap;" parent="1" vertex="1">
          <mxGeometry x="4491.5" y="64" width="60" height="25" as="geometry" />
        </mxCell>
        <mxCell id="ByxKJx8sGJnM6fiIf0L5-137" value="Clear" style="strokeWidth=1;shadow=0;dashed=0;align=center;html=1;shape=mxgraph.mockup.buttons.button;strokeColor=#666666;fontColor=#ffffff;mainText=;buttonStyle=round;fontSize=17;fontStyle=1;fillColor=#008cff;whiteSpace=wrap;" parent="1" vertex="1">
          <mxGeometry x="4560.5" y="64" width="60" height="25" as="geometry" />
        </mxCell>
        <mxCell id="ByxKJx8sGJnM6fiIf0L5-138" value="Order" style="strokeWidth=1;shadow=0;dashed=0;align=center;html=1;shape=mxgraph.mockup.buttons.button;strokeColor=#666666;fontColor=#ffffff;mainText=;buttonStyle=round;fontSize=17;fontStyle=1;fillColor=#008cff;whiteSpace=wrap;" parent="1" vertex="1">
          <mxGeometry x="4628.5" y="64" width="60" height="25" as="geometry" />
        </mxCell>
        <mxCell id="ByxKJx8sGJnM6fiIf0L5-139" value="Arabica" style="text;html=1;align=center;verticalAlign=middle;whiteSpace=wrap;rounded=0;" parent="1" vertex="1">
          <mxGeometry x="4439.5" y="-42" width="60" height="30" as="geometry" />
        </mxCell>
        <mxCell id="ByxKJx8sGJnM6fiIf0L5-140" value="Total: 42,97 €" style="text;html=1;align=center;verticalAlign=middle;whiteSpace=wrap;rounded=0;" parent="1" vertex="1">
          <mxGeometry x="4505.5" y="23" width="99" height="30" as="geometry" />
        </mxCell>
        <mxCell id="ByxKJx8sGJnM6fiIf0L5-141" value="-" style="strokeWidth=1;shadow=0;dashed=0;align=center;html=1;shape=mxgraph.mockup.buttons.button;strokeColor=#666666;fontColor=#ffffff;mainText=;buttonStyle=round;fontSize=17;fontStyle=1;fillColor=#008cff;whiteSpace=wrap;" parent="1" vertex="1">
          <mxGeometry x="4662.5" y="-37" width="20" height="25" as="geometry" />
        </mxCell>
        <mxCell id="ByxKJx8sGJnM6fiIf0L5-142" value="14,99" style="text;html=1;align=center;verticalAlign=middle;whiteSpace=wrap;rounded=0;" parent="1" vertex="1">
          <mxGeometry x="4517.5" y="-39.5" width="99" height="30.5" as="geometry" />
        </mxCell>
        <mxCell id="ByxKJx8sGJnM6fiIf0L5-143" value="&lt;font style=&quot;font-size: 8px;&quot;&gt;3 available&lt;/font&gt;" style="text;html=1;align=center;verticalAlign=middle;whiteSpace=wrap;rounded=0;" parent="1" vertex="1">
          <mxGeometry x="4439.5" y="-33" width="60" height="30" as="geometry" />
        </mxCell>
        <mxCell id="ByxKJx8sGJnM6fiIf0L5-144" value="1" style="strokeWidth=1;shadow=0;dashed=0;align=center;html=1;shape=mxgraph.mockup.forms.spinner;strokeColor=#999999;spinLayout=right;spinStyle=normal;adjStyle=triangle;fillColor=#aaddff;fontSize=17;fontColor=#666666;mainText=;html=1;overflow=fill;" parent="1" vertex="1">
          <mxGeometry x="1304" y="-42" width="60" height="17" as="geometry" />
        </mxCell>
        <mxCell id="ByxKJx8sGJnM6fiIf0L5-145" value="2" style="strokeWidth=1;shadow=0;dashed=0;align=center;html=1;shape=mxgraph.mockup.forms.spinner;strokeColor=#999999;spinLayout=right;spinStyle=normal;adjStyle=triangle;fillColor=#aaddff;fontSize=17;fontColor=#666666;mainText=;html=1;overflow=fill;" parent="1" vertex="1">
          <mxGeometry x="4595" y="-35" width="60" height="17" as="geometry" />
        </mxCell>
        <mxCell id="ByxKJx8sGJnM6fiIf0L5-146" value="Robusta" style="text;html=1;align=center;verticalAlign=middle;whiteSpace=wrap;rounded=0;" parent="1" vertex="1">
          <mxGeometry x="4439.5" y="-10.5" width="60" height="30" as="geometry" />
        </mxCell>
        <mxCell id="ByxKJx8sGJnM6fiIf0L5-147" value="&lt;font style=&quot;font-size: 8px;&quot;&gt;2 available&lt;/font&gt;" style="text;html=1;align=center;verticalAlign=middle;whiteSpace=wrap;rounded=0;" parent="1" vertex="1">
          <mxGeometry x="4439.5" y="-1.5" width="60" height="30" as="geometry" />
        </mxCell>
        <mxCell id="ByxKJx8sGJnM6fiIf0L5-148" value="12,99" style="text;html=1;align=center;verticalAlign=middle;whiteSpace=wrap;rounded=0;" parent="1" vertex="1">
          <mxGeometry x="4517.5" y="-12" width="99" height="30.5" as="geometry" />
        </mxCell>
        <mxCell id="ByxKJx8sGJnM6fiIf0L5-149" value="-" style="strokeWidth=1;shadow=0;dashed=0;align=center;html=1;shape=mxgraph.mockup.buttons.button;strokeColor=#666666;fontColor=#ffffff;mainText=;buttonStyle=round;fontSize=17;fontStyle=1;fillColor=#008cff;whiteSpace=wrap;" parent="1" vertex="1">
          <mxGeometry x="4662.5" y="-10.5" width="20" height="25" as="geometry" />
        </mxCell>
        <mxCell id="ByxKJx8sGJnM6fiIf0L5-150" value="1" style="strokeWidth=1;shadow=0;dashed=0;align=center;html=1;shape=mxgraph.mockup.forms.spinner;strokeColor=#999999;spinLayout=right;spinStyle=normal;adjStyle=triangle;fillColor=#aaddff;fontSize=17;fontColor=#666666;mainText=;html=1;overflow=fill;" parent="1" vertex="1">
          <mxGeometry x="4595" y="-8.5" width="60" height="17" as="geometry" />
        </mxCell>
        <mxCell id="ByxKJx8sGJnM6fiIf0L5-151" value="" style="endArrow=classic;html=1;rounded=0;fontFamily=Helvetica;fontSize=12;fontColor=default;fontStyle=0;curved=1;edgeStyle=orthogonalEdgeStyle;entryX=0.5;entryY=0;entryDx=0;entryDy=0;exitX=0.473;exitY=0.861;exitDx=0;exitDy=0;exitPerimeter=0;" parent="1" source="ByxKJx8sGJnM6fiIf0L5-138" target="ByxKJx8sGJnM6fiIf0L5-83" edge="1">
          <mxGeometry width="50" height="50" relative="1" as="geometry">
            <mxPoint x="4743" y="87" as="sourcePoint" />
            <mxPoint x="4793" y="167" as="targetPoint" />
          </mxGeometry>
        </mxCell>
        <mxCell id="ByxKJx8sGJnM6fiIf0L5-183" value="Window Title" style="strokeWidth=1;shadow=0;dashed=0;align=center;html=1;shape=mxgraph.mockup.containers.window;align=left;verticalAlign=top;spacingLeft=8;strokeColor2=#008cff;strokeColor3=#c4c4c4;fontColor=#666666;mainText=;fontSize=17;labelBackgroundColor=none;whiteSpace=wrap;" parent="1" vertex="1">
          <mxGeometry x="2464" y="-83" width="270" height="176" as="geometry" />
        </mxCell>
        <mxCell id="ByxKJx8sGJnM6fiIf0L5-184" value="Add" style="strokeWidth=1;shadow=0;dashed=0;align=center;html=1;shape=mxgraph.mockup.buttons.button;strokeColor=#666666;fontColor=#ffffff;mainText=;buttonStyle=round;fontSize=17;fontStyle=1;fillColor=#008cff;whiteSpace=wrap;" parent="1" vertex="1">
          <mxGeometry x="2529.5" y="60" width="60" height="25" as="geometry" />
        </mxCell>
        <mxCell id="ByxKJx8sGJnM6fiIf0L5-185" value="Clear" style="strokeWidth=1;shadow=0;dashed=0;align=center;html=1;shape=mxgraph.mockup.buttons.button;strokeColor=#666666;fontColor=#ffffff;mainText=;buttonStyle=round;fontSize=17;fontStyle=1;fillColor=#008cff;whiteSpace=wrap;" parent="1" vertex="1">
          <mxGeometry x="2598.5" y="60" width="60" height="25" as="geometry" />
        </mxCell>
        <mxCell id="ByxKJx8sGJnM6fiIf0L5-186" value="Order" style="strokeWidth=1;shadow=0;dashed=0;align=center;html=1;shape=mxgraph.mockup.buttons.button;strokeColor=#666666;fontColor=#ffffff;mainText=;buttonStyle=round;fontSize=17;fontStyle=1;fillColor=#008cff;whiteSpace=wrap;" parent="1" vertex="1">
          <mxGeometry x="2666.5" y="60" width="60" height="25" as="geometry" />
        </mxCell>
        <mxCell id="ByxKJx8sGJnM6fiIf0L5-187" value="Total: 14,99 €" style="text;html=1;align=center;verticalAlign=middle;whiteSpace=wrap;rounded=0;" parent="1" vertex="1">
          <mxGeometry x="2543.5" y="19" width="99" height="30" as="geometry" />
        </mxCell>
        <mxCell id="ByxKJx8sGJnM6fiIf0L5-188" value="-" style="strokeWidth=1;shadow=0;dashed=0;align=center;html=1;shape=mxgraph.mockup.buttons.button;strokeColor=#666666;fontColor=#ffffff;mainText=;buttonStyle=round;fontSize=17;fontStyle=1;fillColor=#008cff;whiteSpace=wrap;" parent="1" vertex="1">
          <mxGeometry x="2700.5" y="-41" width="20" height="25" as="geometry" />
        </mxCell>
        <mxCell id="ByxKJx8sGJnM6fiIf0L5-189" value="14,99" style="text;html=1;align=center;verticalAlign=middle;whiteSpace=wrap;rounded=0;" parent="1" vertex="1">
          <mxGeometry x="2555.5" y="-43.5" width="99" height="30.5" as="geometry" />
        </mxCell>
        <mxCell id="ByxKJx8sGJnM6fiIf0L5-190" value="&lt;font style=&quot;font-size: 8px;&quot;&gt;3 available&lt;/font&gt;" style="text;html=1;align=center;verticalAlign=middle;whiteSpace=wrap;rounded=0;" parent="1" vertex="1">
          <mxGeometry x="2470.5" y="-44" width="60" height="30" as="geometry" />
        </mxCell>
        <mxCell id="ByxKJx8sGJnM6fiIf0L5-191" value="1" style="strokeWidth=1;shadow=0;dashed=0;align=center;html=1;shape=mxgraph.mockup.forms.spinner;strokeColor=#999999;spinLayout=right;spinStyle=normal;adjStyle=triangle;fillColor=#aaddff;fontSize=17;fontColor=#666666;mainText=;html=1;overflow=fill;" parent="1" vertex="1">
          <mxGeometry x="2630" y="-37" width="60" height="17" as="geometry" />
        </mxCell>
        <mxCell id="ByxKJx8sGJnM6fiIf0L5-193" value="Arabica" style="text;html=1;align=center;verticalAlign=middle;whiteSpace=wrap;rounded=0;" parent="1" vertex="1">
          <mxGeometry x="2470.5" y="-55" width="60" height="30" as="geometry" />
        </mxCell>
        <mxCell id="ByxKJx8sGJnM6fiIf0L5-194" value="" style="endArrow=classic;html=1;rounded=0;fontFamily=Helvetica;fontSize=12;fontColor=default;fontStyle=0;curved=1;edgeStyle=orthogonalEdgeStyle;exitX=0.445;exitY=0.026;exitDx=0;exitDy=0;exitPerimeter=0;entryX=0.25;entryY=1;entryDx=0;entryDy=0;" parent="1" source="ByxKJx8sGJnM6fiIf0L5-49" target="ByxKJx8sGJnM6fiIf0L5-190" edge="1">
          <mxGeometry width="50" height="50" relative="1" as="geometry">
            <mxPoint x="2546" y="167" as="sourcePoint" />
            <mxPoint x="2596" y="247" as="targetPoint" />
            <Array as="points">
              <mxPoint x="2563" y="119" />
              <mxPoint x="2486" y="119" />
            </Array>
          </mxGeometry>
        </mxCell>
        <mxCell id="ByxKJx8sGJnM6fiIf0L5-199" value="&lt;b&gt;Add Item&lt;/b&gt;" style="rounded=0;whiteSpace=wrap;html=1;fillColor=#1ba1e2;fontColor=#ffffff;strokeColor=#006EAF;" parent="1" vertex="1">
          <mxGeometry x="95" y="1703" width="120" height="100" as="geometry" />
        </mxCell>
        <mxCell id="ByxKJx8sGJnM6fiIf0L5-200" value="&lt;b&gt;Cart Created&lt;/b&gt;" style="rounded=0;whiteSpace=wrap;html=1;fillColor=#f0a30a;strokeColor=#BD7000;fontColor=#000000;" parent="1" vertex="1">
          <mxGeometry x="95" y="1830" width="120" height="100" as="geometry" />
        </mxCell>
        <mxCell id="ByxKJx8sGJnM6fiIf0L5-201" value="&lt;b&gt;Item Added&lt;/b&gt;" style="rounded=0;whiteSpace=wrap;html=1;fillColor=#f0a30a;strokeColor=#BD7000;fontColor=#000000;" parent="1" vertex="1">
          <mxGeometry x="258" y="1833" width="120" height="100" as="geometry" />
        </mxCell>
        <mxCell id="ByxKJx8sGJnM6fiIf0L5-229" value="&lt;b&gt;Add Item&lt;/b&gt;" style="rounded=0;whiteSpace=wrap;html=1;fillColor=#1ba1e2;fontColor=#ffffff;strokeColor=#006EAF;" parent="1" vertex="1">
          <mxGeometry x="95" y="2112" width="120" height="100" as="geometry" />
        </mxCell>
        <mxCell id="ByxKJx8sGJnM6fiIf0L5-231" value="&lt;b&gt;Item Added&lt;/b&gt;" style="rounded=0;whiteSpace=wrap;html=1;fillColor=#f0a30a;strokeColor=#BD7000;fontColor=#000000;" parent="1" vertex="1">
          <mxGeometry x="95" y="2240" width="120" height="100" as="geometry" />
        </mxCell>
        <mxCell id="ByxKJx8sGJnM6fiIf0L5-232" value="&lt;b&gt;Cart Created&lt;/b&gt;" style="rounded=0;whiteSpace=wrap;html=1;fillColor=#f0a30a;strokeColor=#BD7000;fontColor=#000000;" parent="1" vertex="1">
          <mxGeometry x="95" y="1984" width="120" height="100" as="geometry" />
        </mxCell>
        <mxCell id="ByxKJx8sGJnM6fiIf0L5-233" value="&lt;b&gt;Item Added&lt;/b&gt;" style="rounded=0;whiteSpace=wrap;html=1;fillColor=#f0a30a;strokeColor=#BD7000;fontColor=#000000;" parent="1" vertex="1">
          <mxGeometry x="258" y="1987" width="120" height="100" as="geometry" />
        </mxCell>
        <mxCell id="ByxKJx8sGJnM6fiIf0L5-242" value="&lt;b&gt;Add Item&lt;/b&gt;" style="rounded=0;whiteSpace=wrap;html=1;fillColor=#1ba1e2;fontColor=#ffffff;strokeColor=#006EAF;" parent="1" vertex="1">
          <mxGeometry x="95" y="2627" width="120" height="100" as="geometry" />
        </mxCell>
        <mxCell id="ByxKJx8sGJnM6fiIf0L5-243" value="&lt;b&gt;Too many items&lt;/b&gt;" style="rounded=0;whiteSpace=wrap;html=1;fillColor=light-dark(#f0380a, #9a5800);strokeColor=#BD7000;fontColor=#000000;" parent="1" vertex="1">
          <mxGeometry x="95" y="2755" width="120" height="100" as="geometry" />
        </mxCell>
        <mxCell id="ByxKJx8sGJnM6fiIf0L5-244" value="&lt;b&gt;Cart Created&lt;/b&gt;" style="rounded=0;whiteSpace=wrap;html=1;fillColor=#f0a30a;strokeColor=#BD7000;fontColor=#000000;" parent="1" vertex="1">
          <mxGeometry x="95" y="2392" width="120" height="100" as="geometry" />
        </mxCell>
        <mxCell id="ByxKJx8sGJnM6fiIf0L5-245" value="&lt;b&gt;Item Added&lt;/b&gt;" style="rounded=0;whiteSpace=wrap;html=1;fillColor=#f0a30a;strokeColor=#BD7000;fontColor=#000000;" parent="1" vertex="1">
          <mxGeometry x="95" y="2510" width="120" height="100" as="geometry" />
        </mxCell>
        <mxCell id="ByxKJx8sGJnM6fiIf0L5-264" value="" style="edgeStyle=orthogonalEdgeStyle;rounded=0;orthogonalLoop=1;jettySize=auto;html=1;" parent="1" source="ByxKJx8sGJnM6fiIf0L5-246" target="ByxKJx8sGJnM6fiIf0L5-247" edge="1">
          <mxGeometry relative="1" as="geometry" />
        </mxCell>
        <mxCell id="ByxKJx8sGJnM6fiIf0L5-246" value="&lt;b&gt;Item Added&lt;/b&gt;" style="rounded=0;whiteSpace=wrap;html=1;fillColor=#f0a30a;strokeColor=#BD7000;fontColor=#000000;" parent="1" vertex="1">
          <mxGeometry x="233" y="2510" width="120" height="100" as="geometry" />
        </mxCell>
        <mxCell id="ByxKJx8sGJnM6fiIf0L5-247" value="&lt;b&gt;Item Added&lt;/b&gt;" style="rounded=0;whiteSpace=wrap;html=1;fillColor=#f0a30a;strokeColor=#BD7000;fontColor=#000000;" parent="1" vertex="1">
          <mxGeometry x="233" y="2392" width="120" height="100" as="geometry" />
        </mxCell>
        <mxCell id="ByxKJx8sGJnM6fiIf0L5-256" value="&lt;span style=&quot;font-size: 30px;&quot;&gt;Given&lt;/span&gt;" style="text;html=1;align=center;verticalAlign=middle;whiteSpace=wrap;rounded=0;" parent="1" vertex="1">
          <mxGeometry x="-31" y="2019" width="60" height="30" as="geometry" />
        </mxCell>
        <mxCell id="ByxKJx8sGJnM6fiIf0L5-259" value="&lt;span style=&quot;font-size: 30px;&quot;&gt;Given&lt;/span&gt;" style="text;html=1;align=center;verticalAlign=middle;whiteSpace=wrap;rounded=0;" parent="1" vertex="1">
          <mxGeometry x="-28" y="2433" width="60" height="30" as="geometry" />
        </mxCell>
        <mxCell id="ByxKJx8sGJnM6fiIf0L5-260" value="&lt;span style=&quot;font-size: 30px;&quot;&gt;Then&lt;/span&gt;" style="text;html=1;align=center;verticalAlign=middle;whiteSpace=wrap;rounded=0;" parent="1" vertex="1">
          <mxGeometry x="-22" y="2790" width="60" height="30" as="geometry" />
        </mxCell>
        <mxCell id="ByxKJx8sGJnM6fiIf0L5-265" value="&lt;b&gt;Item Added&lt;/b&gt;&lt;div&gt;&lt;br&gt;&lt;/div&gt;&lt;div&gt;Price: 5&lt;/div&gt;" style="rounded=0;whiteSpace=wrap;html=1;fillColor=#f0a30a;strokeColor=#BD7000;fontColor=#000000;" parent="1" vertex="1">
          <mxGeometry x="490" y="1578" width="120" height="100" as="geometry" />
        </mxCell>
        <mxCell id="ByxKJx8sGJnM6fiIf0L5-266" value="&lt;b&gt;Cart Items&lt;/b&gt;&lt;div&gt;&lt;br&gt;&lt;/div&gt;&lt;div&gt;Price: 12&lt;/div&gt;" style="rounded=0;whiteSpace=wrap;html=1;fillColor=#cdeb8b;strokeColor=#36393d;" parent="1" vertex="1">
          <mxGeometry x="490" y="1836" width="120" height="100" as="geometry" />
        </mxCell>
        <mxCell id="ByxKJx8sGJnM6fiIf0L5-267" value="&lt;b&gt;Item Added&lt;/b&gt;&lt;div&gt;&lt;b&gt;&lt;br&gt;&lt;/b&gt;&lt;/div&gt;&lt;div&gt;&lt;b&gt;Price: 7&lt;/b&gt;&lt;/div&gt;" style="rounded=0;whiteSpace=wrap;html=1;fillColor=#f0a30a;strokeColor=#BD7000;fontColor=#000000;" parent="1" vertex="1">
          <mxGeometry x="615" y="1578" width="120" height="100" as="geometry" />
        </mxCell>
        <mxCell id="ByxKJx8sGJnM6fiIf0L5-268" value="&lt;b&gt;Item Added&lt;/b&gt;&lt;div&gt;&lt;br&gt;&lt;/div&gt;&lt;div&gt;Price: 5&lt;/div&gt;" style="rounded=0;whiteSpace=wrap;html=1;fillColor=#f0a30a;strokeColor=#BD7000;fontColor=#000000;" parent="1" vertex="1">
          <mxGeometry x="488" y="1983" width="120" height="100" as="geometry" />
        </mxCell>
        <mxCell id="ByxKJx8sGJnM6fiIf0L5-269" value="&lt;b&gt;Cart Items&lt;/b&gt;&lt;div&gt;&lt;br&gt;&lt;/div&gt;&lt;div&gt;Price: 0&lt;/div&gt;" style="rounded=0;whiteSpace=wrap;html=1;fillColor=#cdeb8b;strokeColor=#36393d;" parent="1" vertex="1">
          <mxGeometry x="489" y="2245" width="120" height="100" as="geometry" />
        </mxCell>
        <mxCell id="ByxKJx8sGJnM6fiIf0L5-270" value="&lt;b&gt;Item Removed&lt;/b&gt;" style="rounded=0;whiteSpace=wrap;html=1;fillColor=#f0a30a;strokeColor=#BD7000;fontColor=#000000;" parent="1" vertex="1">
          <mxGeometry x="613" y="1983" width="120" height="100" as="geometry" />
        </mxCell>
        <mxCell id="ByxKJx8sGJnM6fiIf0L5-274" value="&lt;b&gt;Unknown cart&lt;/b&gt;" style="rounded=0;whiteSpace=wrap;html=1;fillColor=light-dark(#f0380a, #9a5800);strokeColor=#BD7000;fontColor=#000000;" parent="1" vertex="1">
          <mxGeometry x="493" y="2756" width="120" height="100" as="geometry" />
        </mxCell>
        <mxCell id="8i-SZxHf3FPcpDf9zbPk-1" value="&lt;b&gt;Cart Created&lt;/b&gt;" style="rounded=0;whiteSpace=wrap;html=1;fillColor=#f0a30a;strokeColor=#BD7000;fontColor=#000000;" parent="1" vertex="1">
          <mxGeometry x="776" y="1578" width="120" height="100" as="geometry" />
        </mxCell>
        <mxCell id="8i-SZxHf3FPcpDf9zbPk-2" value="&lt;b&gt;Item Added&lt;/b&gt;" style="rounded=0;whiteSpace=wrap;html=1;fillColor=#f0a30a;strokeColor=#BD7000;fontColor=#000000;" parent="1" vertex="1">
          <mxGeometry x="911" y="1578" width="120" height="100" as="geometry" />
        </mxCell>
        <mxCell id="8i-SZxHf3FPcpDf9zbPk-3" value="&lt;b&gt;Remove Item&lt;/b&gt;" style="rounded=0;whiteSpace=wrap;html=1;fillColor=#1ba1e2;fontColor=#ffffff;strokeColor=#006EAF;" parent="1" vertex="1">
          <mxGeometry x="776" y="1703" width="120" height="100" as="geometry" />
        </mxCell>
        <mxCell id="8i-SZxHf3FPcpDf9zbPk-4" value="&lt;b&gt;Item Removed&lt;/b&gt;" style="rounded=0;whiteSpace=wrap;html=1;fillColor=#f0a30a;strokeColor=#BD7000;fontColor=#000000;" parent="1" vertex="1">
          <mxGeometry x="776" y="1830" width="120" height="100" as="geometry" />
        </mxCell>
        <mxCell id="8i-SZxHf3FPcpDf9zbPk-5" value="&lt;b&gt;Cart Created&lt;/b&gt;" style="rounded=0;whiteSpace=wrap;html=1;fillColor=#f0a30a;strokeColor=#BD7000;fontColor=#000000;" parent="1" vertex="1">
          <mxGeometry x="776" y="1983" width="90" height="100" as="geometry" />
        </mxCell>
        <mxCell id="8i-SZxHf3FPcpDf9zbPk-6" value="&lt;b&gt;Item Added&lt;/b&gt;" style="rounded=0;whiteSpace=wrap;html=1;fillColor=#f0a30a;strokeColor=#BD7000;fontColor=#000000;" parent="1" vertex="1">
          <mxGeometry x="877.5" y="1983" width="82" height="100" as="geometry" />
        </mxCell>
        <mxCell id="8i-SZxHf3FPcpDf9zbPk-7" value="&lt;b&gt;Remove Item&lt;/b&gt;" style="rounded=0;whiteSpace=wrap;html=1;fillColor=#1ba1e2;fontColor=#ffffff;strokeColor=#006EAF;" parent="1" vertex="1">
          <mxGeometry x="776" y="2108" width="120" height="100" as="geometry" />
        </mxCell>
        <mxCell id="8i-SZxHf3FPcpDf9zbPk-8" value="&lt;b&gt;Item Removed&lt;/b&gt;" style="rounded=0;whiteSpace=wrap;html=1;fillColor=#f0a30a;strokeColor=#BD7000;fontColor=#000000;" parent="1" vertex="1">
          <mxGeometry x="971.5" y="1983" width="90" height="100" as="geometry" />
        </mxCell>
        <mxCell id="8i-SZxHf3FPcpDf9zbPk-9" value="&lt;b&gt;Item already removed&lt;/b&gt;" style="rounded=0;whiteSpace=wrap;html=1;fillColor=light-dark(#f0380a, #9a5800);strokeColor=#BD7000;fontColor=#000000;" parent="1" vertex="1">
          <mxGeometry x="776" y="2240" width="120" height="100" as="geometry" />
        </mxCell>
        <mxCell id="8i-SZxHf3FPcpDf9zbPk-12" value="&lt;b&gt;Cart Created&lt;/b&gt;" style="rounded=0;whiteSpace=wrap;html=1;fillColor=#f0a30a;strokeColor=#BD7000;fontColor=#000000;" parent="1" vertex="1">
          <mxGeometry x="1145.5" y="1578" width="120" height="100" as="geometry" />
        </mxCell>
        <mxCell id="8i-SZxHf3FPcpDf9zbPk-13" value="&lt;b&gt;Item Added&lt;/b&gt;" style="rounded=0;whiteSpace=wrap;html=1;fillColor=#f0a30a;strokeColor=#BD7000;fontColor=#000000;" parent="1" vertex="1">
          <mxGeometry x="1280.5" y="1578" width="120" height="100" as="geometry" />
        </mxCell>
        <mxCell id="8i-SZxHf3FPcpDf9zbPk-14" value="&lt;b&gt;Clear Cart&lt;/b&gt;" style="rounded=0;whiteSpace=wrap;html=1;fillColor=#1ba1e2;fontColor=#ffffff;strokeColor=#006EAF;" parent="1" vertex="1">
          <mxGeometry x="1145.5" y="1703" width="120" height="100" as="geometry" />
        </mxCell>
        <mxCell id="8i-SZxHf3FPcpDf9zbPk-15" value="&lt;b&gt;Cart Cleared&lt;/b&gt;" style="rounded=0;whiteSpace=wrap;html=1;fillColor=#f0a30a;strokeColor=#BD7000;fontColor=#000000;" parent="1" vertex="1">
          <mxGeometry x="1145.5" y="1830" width="120" height="100" as="geometry" />
        </mxCell>
        <mxCell id="8i-SZxHf3FPcpDf9zbPk-17" value="&lt;b&gt;Change Inventory&lt;/b&gt;" style="rounded=0;whiteSpace=wrap;html=1;fillColor=#1ba1e2;fontColor=#ffffff;strokeColor=#006EAF;" parent="1" vertex="1">
          <mxGeometry x="1876" y="1703" width="120" height="100" as="geometry" />
        </mxCell>
        <mxCell id="8i-SZxHf3FPcpDf9zbPk-18" value="&lt;b&gt;Inventory Changed&lt;/b&gt;" style="rounded=0;whiteSpace=wrap;html=1;fillColor=#f0a30a;strokeColor=#BD7000;fontColor=#000000;" parent="1" vertex="1">
          <mxGeometry x="1876" y="1830" width="120" height="100" as="geometry" />
        </mxCell>
        <mxCell id="ByxKJx8sGJnM6fiIf0L5-155" value="Slices" style="" parent="0" />
        <mxCell id="ByxKJx8sGJnM6fiIf0L5-234" value="" style="rounded=0;whiteSpace=wrap;html=1;fillColor=none;strokeColor=#00FF00;" parent="ByxKJx8sGJnM6fiIf0L5-155" vertex="1">
          <mxGeometry x="80" y="1561" width="345" height="384" as="geometry" />
        </mxCell>
        <mxCell id="ByxKJx8sGJnM6fiIf0L5-156" value="" style="rounded=0;whiteSpace=wrap;html=1;fillColor=none;fontColor=#000000;strokeColor=#00FF00;" parent="ByxKJx8sGJnM6fiIf0L5-155" vertex="1">
          <mxGeometry x="80" y="-570" width="385" height="2075" as="geometry" />
        </mxCell>
        <mxCell id="ByxKJx8sGJnM6fiIf0L5-157" value="" style="rounded=0;whiteSpace=wrap;html=1;fillColor=none;strokeColor=#00FF00;" parent="ByxKJx8sGJnM6fiIf0L5-155" vertex="1">
          <mxGeometry x="490" y="-570" width="228" height="2075" as="geometry" />
        </mxCell>
        <mxCell id="ByxKJx8sGJnM6fiIf0L5-158" value="" style="rounded=0;whiteSpace=wrap;html=1;fillColor=none;strokeColor=#00FF00;" parent="ByxKJx8sGJnM6fiIf0L5-155" vertex="1">
          <mxGeometry x="771" y="-566" width="311" height="2075" as="geometry" />
        </mxCell>
        <mxCell id="ByxKJx8sGJnM6fiIf0L5-159" value="" style="rounded=0;whiteSpace=wrap;html=1;fillColor=none;strokeColor=#00FF00;" parent="ByxKJx8sGJnM6fiIf0L5-155" vertex="1">
          <mxGeometry x="1118" y="-566" width="311" height="2075" as="geometry" />
        </mxCell>
        <mxCell id="ByxKJx8sGJnM6fiIf0L5-161" value="" style="rounded=0;whiteSpace=wrap;html=1;fillColor=none;strokeColor=#00FF00;" parent="ByxKJx8sGJnM6fiIf0L5-155" vertex="1">
          <mxGeometry x="1829" y="-562" width="577" height="2075" as="geometry" />
        </mxCell>
        <mxCell id="ByxKJx8sGJnM6fiIf0L5-162" value="" style="rounded=0;whiteSpace=wrap;html=1;fillColor=none;fontColor=#000000;strokeColor=#FF2340;" parent="ByxKJx8sGJnM6fiIf0L5-155" vertex="1">
          <mxGeometry x="2433" y="-558" width="366" height="2075" as="geometry" />
        </mxCell>
        <mxCell id="ByxKJx8sGJnM6fiIf0L5-163" value="" style="rounded=0;whiteSpace=wrap;html=1;fillColor=none;" parent="ByxKJx8sGJnM6fiIf0L5-155" vertex="1">
          <mxGeometry x="2823" y="-566" width="537" height="2075" as="geometry" />
        </mxCell>
        <mxCell id="ByxKJx8sGJnM6fiIf0L5-164" value="" style="rounded=0;whiteSpace=wrap;html=1;fillColor=none;" parent="ByxKJx8sGJnM6fiIf0L5-155" vertex="1">
          <mxGeometry x="3487" y="-566" width="189" height="2075" as="geometry" />
        </mxCell>
        <mxCell id="ByxKJx8sGJnM6fiIf0L5-165" value="" style="rounded=0;whiteSpace=wrap;html=1;fillColor=none;" parent="ByxKJx8sGJnM6fiIf0L5-155" vertex="1">
          <mxGeometry x="3717" y="-562" width="598" height="2075" as="geometry" />
        </mxCell>
        <mxCell id="ByxKJx8sGJnM6fiIf0L5-166" value="" style="rounded=0;whiteSpace=wrap;html=1;fillColor=none;" parent="ByxKJx8sGJnM6fiIf0L5-155" vertex="1">
          <mxGeometry x="4396" y="-562" width="366" height="2075" as="geometry" />
        </mxCell>
        <mxCell id="ByxKJx8sGJnM6fiIf0L5-168" value="" style="rounded=0;whiteSpace=wrap;html=1;fillColor=none;" parent="ByxKJx8sGJnM6fiIf0L5-155" vertex="1">
          <mxGeometry x="4848" y="-562" width="1084" height="2075" as="geometry" />
        </mxCell>
        <mxCell id="ByxKJx8sGJnM6fiIf0L5-169" value="&lt;font style=&quot;font-size: 30px;&quot;&gt;Add Item&lt;/font&gt;" style="text;html=1;align=center;verticalAlign=middle;whiteSpace=wrap;rounded=0;fillColor=none;fontColor=#000000;" parent="ByxKJx8sGJnM6fiIf0L5-155" vertex="1">
          <mxGeometry x="159" y="-503" width="223" height="30" as="geometry" />
        </mxCell>
        <mxCell id="ByxKJx8sGJnM6fiIf0L5-170" value="&lt;font style=&quot;font-size: 30px;&quot;&gt;Cart Items&lt;/font&gt;" style="text;html=1;align=center;verticalAlign=middle;whiteSpace=wrap;rounded=0;fillColor=none;fontColor=#000000;" parent="ByxKJx8sGJnM6fiIf0L5-155" vertex="1">
          <mxGeometry x="487" y="-506" width="223" height="30" as="geometry" />
        </mxCell>
        <mxCell id="ByxKJx8sGJnM6fiIf0L5-171" value="&lt;font style=&quot;font-size: 30px;&quot;&gt;Remove Item&lt;/font&gt;" style="text;html=1;align=center;verticalAlign=middle;whiteSpace=wrap;rounded=0;fillColor=none;fontColor=#000000;" parent="ByxKJx8sGJnM6fiIf0L5-155" vertex="1">
          <mxGeometry x="813" y="-506" width="223" height="30" as="geometry" />
        </mxCell>
        <mxCell id="ByxKJx8sGJnM6fiIf0L5-172" value="&lt;font style=&quot;font-size: 30px;&quot;&gt;Clear Cart&lt;/font&gt;" style="text;html=1;align=center;verticalAlign=middle;whiteSpace=wrap;rounded=0;fillColor=none;fontColor=#000000;" parent="ByxKJx8sGJnM6fiIf0L5-155" vertex="1">
          <mxGeometry x="1173" y="-503" width="223" height="30" as="geometry" />
        </mxCell>
        <mxCell id="ByxKJx8sGJnM6fiIf0L5-173" value="&lt;font style=&quot;font-size: 30px; background-color: light-dark(rgb(255, 255, 255), rgb(0, 143, 0));&quot;&gt;Inventory Changed&lt;/font&gt;" style="text;html=1;align=center;verticalAlign=middle;whiteSpace=wrap;rounded=0;fillColor=none;fontColor=#000000;" parent="ByxKJx8sGJnM6fiIf0L5-155" vertex="1">
          <mxGeometry x="1978" y="-503" width="301" height="30" as="geometry" />
        </mxCell>
        <mxCell id="ByxKJx8sGJnM6fiIf0L5-174" value="&lt;font style=&quot;font-size: 30px; background-color: light-dark(rgb(255, 255, 255), rgb(0, 143, 0));&quot;&gt;Inventories&lt;/font&gt;" style="text;html=1;align=center;verticalAlign=middle;whiteSpace=wrap;rounded=0;fillColor=none;fontColor=#000000;" parent="ByxKJx8sGJnM6fiIf0L5-155" vertex="1">
          <mxGeometry x="2460" y="-500" width="301" height="30" as="geometry" />
        </mxCell>
        <mxCell id="ByxKJx8sGJnM6fiIf0L5-175" value="&lt;font style=&quot;font-size: 30px; background-color: light-dark(rgb(255, 255, 255), rgb(0, 143, 0));&quot;&gt;Price Changed&lt;/font&gt;" style="text;html=1;align=center;verticalAlign=middle;whiteSpace=wrap;rounded=0;fillColor=none;fontColor=default;" parent="ByxKJx8sGJnM6fiIf0L5-155" vertex="1">
          <mxGeometry x="2907" y="-506" width="301" height="30" as="geometry" />
        </mxCell>
        <mxCell id="ByxKJx8sGJnM6fiIf0L5-176" value="&lt;font style=&quot;font-size: 30px; background-color: light-dark(rgb(255, 255, 255), rgb(0, 143, 0));&quot;&gt;Carts with Products&lt;/font&gt;" style="text;html=1;align=center;verticalAlign=middle;whiteSpace=wrap;rounded=0;fillColor=none;fontColor=default;" parent="ByxKJx8sGJnM6fiIf0L5-155" vertex="1">
          <mxGeometry x="3475" y="-509" width="218" height="30" as="geometry" />
        </mxCell>
        <mxCell id="ByxKJx8sGJnM6fiIf0L5-179" value="&lt;font style=&quot;font-size: 30px; background-color: light-dark(rgb(255, 255, 255), rgb(0, 143, 0));&quot;&gt;Archive Item&lt;/font&gt;" style="text;html=1;align=center;verticalAlign=middle;whiteSpace=wrap;rounded=0;fillColor=none;fontColor=default;" parent="ByxKJx8sGJnM6fiIf0L5-155" vertex="1">
          <mxGeometry x="3876" y="-512" width="301" height="30" as="geometry" />
        </mxCell>
        <mxCell id="ByxKJx8sGJnM6fiIf0L5-180" value="&lt;font style=&quot;font-size: 30px; background-color: light-dark(rgb(255, 255, 255), rgb(0, 143, 0));&quot;&gt;Submit Cart&lt;/font&gt;" style="text;html=1;align=center;verticalAlign=middle;whiteSpace=wrap;rounded=0;fillColor=none;fontColor=default;" parent="ByxKJx8sGJnM6fiIf0L5-155" vertex="1">
          <mxGeometry x="4421" y="-506" width="301" height="30" as="geometry" />
        </mxCell>
        <mxCell id="ByxKJx8sGJnM6fiIf0L5-182" value="&lt;font style=&quot;font-size: 30px; background-color: light-dark(rgb(255, 255, 255), rgb(0, 143, 0));&quot;&gt;Publish Cart&lt;/font&gt;" style="text;html=1;align=center;verticalAlign=middle;whiteSpace=wrap;rounded=0;fillColor=none;fontColor=default;" parent="ByxKJx8sGJnM6fiIf0L5-155" vertex="1">
          <mxGeometry x="5239.5" y="-512" width="301" height="30" as="geometry" />
        </mxCell>
        <mxCell id="ByxKJx8sGJnM6fiIf0L5-235" value="&lt;span style=&quot;font-size: 30px;&quot;&gt;Given&lt;/span&gt;" style="text;html=1;align=center;verticalAlign=middle;whiteSpace=wrap;rounded=0;" parent="ByxKJx8sGJnM6fiIf0L5-155" vertex="1">
          <mxGeometry x="-43" y="1606" width="60" height="30" as="geometry" />
        </mxCell>
        <mxCell id="ByxKJx8sGJnM6fiIf0L5-236" value="&lt;span style=&quot;font-size: 30px;&quot;&gt;When&lt;/span&gt;" style="text;html=1;align=center;verticalAlign=middle;whiteSpace=wrap;rounded=0;" parent="ByxKJx8sGJnM6fiIf0L5-155" vertex="1">
          <mxGeometry x="-43" y="1728" width="60" height="30" as="geometry" />
        </mxCell>
        <mxCell id="ByxKJx8sGJnM6fiIf0L5-237" value="&lt;span style=&quot;font-size: 30px;&quot;&gt;Then&lt;/span&gt;" style="text;html=1;align=center;verticalAlign=middle;whiteSpace=wrap;rounded=0;" parent="ByxKJx8sGJnM6fiIf0L5-155" vertex="1">
          <mxGeometry x="-39" y="1850" width="60" height="30" as="geometry" />
        </mxCell>
        <mxCell id="ByxKJx8sGJnM6fiIf0L5-238" value="" style="rounded=0;whiteSpace=wrap;html=1;fillColor=none;strokeColor=#00FF00;" parent="ByxKJx8sGJnM6fiIf0L5-155" vertex="1">
          <mxGeometry x="82" y="2381" width="345" height="499" as="geometry" />
        </mxCell>
        <mxCell id="ByxKJx8sGJnM6fiIf0L5-239" value="&lt;span style=&quot;font-size: 30px;&quot;&gt;When&lt;/span&gt;" style="text;html=1;align=center;verticalAlign=middle;whiteSpace=wrap;rounded=0;" parent="ByxKJx8sGJnM6fiIf0L5-155" vertex="1">
          <mxGeometry x="-24" y="2660" width="60" height="30" as="geometry" />
        </mxCell>
        <mxCell id="ByxKJx8sGJnM6fiIf0L5-240" value="&lt;span style=&quot;font-size: 30px;&quot;&gt;When&lt;/span&gt;" style="text;html=1;align=center;verticalAlign=middle;whiteSpace=wrap;rounded=0;" parent="ByxKJx8sGJnM6fiIf0L5-155" vertex="1">
          <mxGeometry x="-35" y="2138" width="60" height="30" as="geometry" />
        </mxCell>
        <mxCell id="ByxKJx8sGJnM6fiIf0L5-241" value="&lt;span style=&quot;font-size: 30px;&quot;&gt;Then&lt;/span&gt;" style="text;html=1;align=center;verticalAlign=middle;whiteSpace=wrap;rounded=0;" parent="ByxKJx8sGJnM6fiIf0L5-155" vertex="1">
          <mxGeometry x="-41" y="2262" width="60" height="30" as="geometry" />
        </mxCell>
        <mxCell id="ByxKJx8sGJnM6fiIf0L5-263" value="" style="rounded=0;whiteSpace=wrap;html=1;fillColor=none;strokeColor=#00FF00;" parent="ByxKJx8sGJnM6fiIf0L5-155" vertex="1">
          <mxGeometry x="80" y="1971" width="345" height="384" as="geometry" />
        </mxCell>
        <mxCell id="ByxKJx8sGJnM6fiIf0L5-275" value="" style="rounded=0;whiteSpace=wrap;html=1;fillColor=none;strokeColor=#00FF00;" parent="ByxKJx8sGJnM6fiIf0L5-155" vertex="1">
          <mxGeometry x="482" y="2381" width="260" height="499" as="geometry" />
        </mxCell>
        <mxCell id="ByxKJx8sGJnM6fiIf0L5-276" value="" style="rounded=0;whiteSpace=wrap;html=1;fillColor=none;" parent="ByxKJx8sGJnM6fiIf0L5-155" vertex="1">
          <mxGeometry x="482" y="1970" width="260" height="385" as="geometry" />
        </mxCell>
        <mxCell id="ByxKJx8sGJnM6fiIf0L5-277" value="" style="rounded=0;whiteSpace=wrap;html=1;fillColor=none;strokeColor=#00FF00;" parent="ByxKJx8sGJnM6fiIf0L5-155" vertex="1">
          <mxGeometry x="482" y="1561" width="262" height="385" as="geometry" />
        </mxCell>
        <mxCell id="8i-SZxHf3FPcpDf9zbPk-10" value="" style="rounded=0;whiteSpace=wrap;html=1;fillColor=none;strokeColor=#00FF00;" parent="ByxKJx8sGJnM6fiIf0L5-155" vertex="1">
          <mxGeometry x="765" y="1970" width="307" height="385" as="geometry" />
        </mxCell>
        <mxCell id="8i-SZxHf3FPcpDf9zbPk-11" value="" style="rounded=0;whiteSpace=wrap;html=1;fillColor=none;strokeColor=#00FF00;" parent="ByxKJx8sGJnM6fiIf0L5-155" vertex="1">
          <mxGeometry x="765" y="1561" width="307" height="385" as="geometry" />
        </mxCell>
        <mxCell id="8i-SZxHf3FPcpDf9zbPk-16" value="" style="rounded=0;whiteSpace=wrap;html=1;fillColor=none;strokeColor=#00FF00;" parent="ByxKJx8sGJnM6fiIf0L5-155" vertex="1">
          <mxGeometry x="1115" y="1560" width="307" height="385" as="geometry" />
        </mxCell>
        <mxCell id="8i-SZxHf3FPcpDf9zbPk-19" value="" style="rounded=0;whiteSpace=wrap;html=1;fillColor=none;strokeColor=#00FF00;" parent="ByxKJx8sGJnM6fiIf0L5-155" vertex="1">
          <mxGeometry x="1829" y="1560" width="307" height="385" as="geometry" />
        </mxCell>
      </root>
    </mxGraphModel>
  </diagram>
</mxfile>
